%
M48
M72
T01C0.03200
T02C0.04000
T03C0.05200
T04C0.12598
%
T01
X91000Y26000
X101000Y26000
X116000Y26000
X136000Y26000
X151000Y41000
X151000Y51000
X151000Y66000
X151000Y76000
X161000Y76000
X171000Y76000
X151000Y86000
X151000Y96000
X161000Y96000
X171000Y96000
X151000Y106000
X151000Y116000
X161000Y116000
X171000Y116000
X171000Y131000
X161000Y131000
X151000Y126000
X151000Y151000
X141000Y151000
X121000Y126000
X111000Y126000
X101000Y126000
X86000Y126000
X76000Y126000
X101000Y96000
X111000Y96000
X121000Y96000
X121000Y86000
X121000Y76000
X121000Y66000
X111000Y76000
X101000Y76000
X116000Y46000
X136000Y46000
X121000Y106000
X121000Y116000
T02
X48200Y44900
X48200Y27100
X73800Y27100
X73800Y44900
T03
X76000Y156000
X86000Y156000
X96000Y156000
X106000Y156000
X116000Y156000
X86000Y96000
X86000Y86000
X86000Y76000
T04
X26000Y31000
X26000Y151000
X166000Y151000
X166000Y31000
M30
