G75*
%MOIN*%
%OFA0B0*%
%FSLAX25Y25*%
%IPPOS*%
%LPD*%
%AMOC8*
5,1,8,0,0,1.08239X$1,22.5*
%
%ADD10C,0.00000*%
%ADD11C,0.01200*%
%ADD12C,0.00600*%
%ADD13C,0.00500*%
%ADD14C,0.02400*%
%ADD15C,0.00200*%
%ADD16C,0.01000*%
D10*
X0001000Y0001000D02*
X0001000Y0180961D01*
X0194701Y0180961D01*
X0194701Y0001000D01*
X0001000Y0001000D01*
X0019701Y0031000D02*
X0019703Y0031158D01*
X0019709Y0031316D01*
X0019719Y0031474D01*
X0019733Y0031632D01*
X0019751Y0031789D01*
X0019772Y0031946D01*
X0019798Y0032102D01*
X0019828Y0032258D01*
X0019861Y0032413D01*
X0019899Y0032566D01*
X0019940Y0032719D01*
X0019985Y0032871D01*
X0020034Y0033022D01*
X0020087Y0033171D01*
X0020143Y0033319D01*
X0020203Y0033465D01*
X0020267Y0033610D01*
X0020335Y0033753D01*
X0020406Y0033895D01*
X0020480Y0034035D01*
X0020558Y0034172D01*
X0020640Y0034308D01*
X0020724Y0034442D01*
X0020813Y0034573D01*
X0020904Y0034702D01*
X0020999Y0034829D01*
X0021096Y0034954D01*
X0021197Y0035076D01*
X0021301Y0035195D01*
X0021408Y0035312D01*
X0021518Y0035426D01*
X0021631Y0035537D01*
X0021746Y0035646D01*
X0021864Y0035751D01*
X0021985Y0035853D01*
X0022108Y0035953D01*
X0022234Y0036049D01*
X0022362Y0036142D01*
X0022492Y0036232D01*
X0022625Y0036318D01*
X0022760Y0036402D01*
X0022896Y0036481D01*
X0023035Y0036558D01*
X0023176Y0036630D01*
X0023318Y0036700D01*
X0023462Y0036765D01*
X0023608Y0036827D01*
X0023755Y0036885D01*
X0023904Y0036940D01*
X0024054Y0036991D01*
X0024205Y0037038D01*
X0024357Y0037081D01*
X0024510Y0037120D01*
X0024665Y0037156D01*
X0024820Y0037187D01*
X0024976Y0037215D01*
X0025132Y0037239D01*
X0025289Y0037259D01*
X0025447Y0037275D01*
X0025604Y0037287D01*
X0025763Y0037295D01*
X0025921Y0037299D01*
X0026079Y0037299D01*
X0026237Y0037295D01*
X0026396Y0037287D01*
X0026553Y0037275D01*
X0026711Y0037259D01*
X0026868Y0037239D01*
X0027024Y0037215D01*
X0027180Y0037187D01*
X0027335Y0037156D01*
X0027490Y0037120D01*
X0027643Y0037081D01*
X0027795Y0037038D01*
X0027946Y0036991D01*
X0028096Y0036940D01*
X0028245Y0036885D01*
X0028392Y0036827D01*
X0028538Y0036765D01*
X0028682Y0036700D01*
X0028824Y0036630D01*
X0028965Y0036558D01*
X0029104Y0036481D01*
X0029240Y0036402D01*
X0029375Y0036318D01*
X0029508Y0036232D01*
X0029638Y0036142D01*
X0029766Y0036049D01*
X0029892Y0035953D01*
X0030015Y0035853D01*
X0030136Y0035751D01*
X0030254Y0035646D01*
X0030369Y0035537D01*
X0030482Y0035426D01*
X0030592Y0035312D01*
X0030699Y0035195D01*
X0030803Y0035076D01*
X0030904Y0034954D01*
X0031001Y0034829D01*
X0031096Y0034702D01*
X0031187Y0034573D01*
X0031276Y0034442D01*
X0031360Y0034308D01*
X0031442Y0034172D01*
X0031520Y0034035D01*
X0031594Y0033895D01*
X0031665Y0033753D01*
X0031733Y0033610D01*
X0031797Y0033465D01*
X0031857Y0033319D01*
X0031913Y0033171D01*
X0031966Y0033022D01*
X0032015Y0032871D01*
X0032060Y0032719D01*
X0032101Y0032566D01*
X0032139Y0032413D01*
X0032172Y0032258D01*
X0032202Y0032102D01*
X0032228Y0031946D01*
X0032249Y0031789D01*
X0032267Y0031632D01*
X0032281Y0031474D01*
X0032291Y0031316D01*
X0032297Y0031158D01*
X0032299Y0031000D01*
X0032297Y0030842D01*
X0032291Y0030684D01*
X0032281Y0030526D01*
X0032267Y0030368D01*
X0032249Y0030211D01*
X0032228Y0030054D01*
X0032202Y0029898D01*
X0032172Y0029742D01*
X0032139Y0029587D01*
X0032101Y0029434D01*
X0032060Y0029281D01*
X0032015Y0029129D01*
X0031966Y0028978D01*
X0031913Y0028829D01*
X0031857Y0028681D01*
X0031797Y0028535D01*
X0031733Y0028390D01*
X0031665Y0028247D01*
X0031594Y0028105D01*
X0031520Y0027965D01*
X0031442Y0027828D01*
X0031360Y0027692D01*
X0031276Y0027558D01*
X0031187Y0027427D01*
X0031096Y0027298D01*
X0031001Y0027171D01*
X0030904Y0027046D01*
X0030803Y0026924D01*
X0030699Y0026805D01*
X0030592Y0026688D01*
X0030482Y0026574D01*
X0030369Y0026463D01*
X0030254Y0026354D01*
X0030136Y0026249D01*
X0030015Y0026147D01*
X0029892Y0026047D01*
X0029766Y0025951D01*
X0029638Y0025858D01*
X0029508Y0025768D01*
X0029375Y0025682D01*
X0029240Y0025598D01*
X0029104Y0025519D01*
X0028965Y0025442D01*
X0028824Y0025370D01*
X0028682Y0025300D01*
X0028538Y0025235D01*
X0028392Y0025173D01*
X0028245Y0025115D01*
X0028096Y0025060D01*
X0027946Y0025009D01*
X0027795Y0024962D01*
X0027643Y0024919D01*
X0027490Y0024880D01*
X0027335Y0024844D01*
X0027180Y0024813D01*
X0027024Y0024785D01*
X0026868Y0024761D01*
X0026711Y0024741D01*
X0026553Y0024725D01*
X0026396Y0024713D01*
X0026237Y0024705D01*
X0026079Y0024701D01*
X0025921Y0024701D01*
X0025763Y0024705D01*
X0025604Y0024713D01*
X0025447Y0024725D01*
X0025289Y0024741D01*
X0025132Y0024761D01*
X0024976Y0024785D01*
X0024820Y0024813D01*
X0024665Y0024844D01*
X0024510Y0024880D01*
X0024357Y0024919D01*
X0024205Y0024962D01*
X0024054Y0025009D01*
X0023904Y0025060D01*
X0023755Y0025115D01*
X0023608Y0025173D01*
X0023462Y0025235D01*
X0023318Y0025300D01*
X0023176Y0025370D01*
X0023035Y0025442D01*
X0022896Y0025519D01*
X0022760Y0025598D01*
X0022625Y0025682D01*
X0022492Y0025768D01*
X0022362Y0025858D01*
X0022234Y0025951D01*
X0022108Y0026047D01*
X0021985Y0026147D01*
X0021864Y0026249D01*
X0021746Y0026354D01*
X0021631Y0026463D01*
X0021518Y0026574D01*
X0021408Y0026688D01*
X0021301Y0026805D01*
X0021197Y0026924D01*
X0021096Y0027046D01*
X0020999Y0027171D01*
X0020904Y0027298D01*
X0020813Y0027427D01*
X0020724Y0027558D01*
X0020640Y0027692D01*
X0020558Y0027828D01*
X0020480Y0027965D01*
X0020406Y0028105D01*
X0020335Y0028247D01*
X0020267Y0028390D01*
X0020203Y0028535D01*
X0020143Y0028681D01*
X0020087Y0028829D01*
X0020034Y0028978D01*
X0019985Y0029129D01*
X0019940Y0029281D01*
X0019899Y0029434D01*
X0019861Y0029587D01*
X0019828Y0029742D01*
X0019798Y0029898D01*
X0019772Y0030054D01*
X0019751Y0030211D01*
X0019733Y0030368D01*
X0019719Y0030526D01*
X0019709Y0030684D01*
X0019703Y0030842D01*
X0019701Y0031000D01*
X0019701Y0151000D02*
X0019703Y0151158D01*
X0019709Y0151316D01*
X0019719Y0151474D01*
X0019733Y0151632D01*
X0019751Y0151789D01*
X0019772Y0151946D01*
X0019798Y0152102D01*
X0019828Y0152258D01*
X0019861Y0152413D01*
X0019899Y0152566D01*
X0019940Y0152719D01*
X0019985Y0152871D01*
X0020034Y0153022D01*
X0020087Y0153171D01*
X0020143Y0153319D01*
X0020203Y0153465D01*
X0020267Y0153610D01*
X0020335Y0153753D01*
X0020406Y0153895D01*
X0020480Y0154035D01*
X0020558Y0154172D01*
X0020640Y0154308D01*
X0020724Y0154442D01*
X0020813Y0154573D01*
X0020904Y0154702D01*
X0020999Y0154829D01*
X0021096Y0154954D01*
X0021197Y0155076D01*
X0021301Y0155195D01*
X0021408Y0155312D01*
X0021518Y0155426D01*
X0021631Y0155537D01*
X0021746Y0155646D01*
X0021864Y0155751D01*
X0021985Y0155853D01*
X0022108Y0155953D01*
X0022234Y0156049D01*
X0022362Y0156142D01*
X0022492Y0156232D01*
X0022625Y0156318D01*
X0022760Y0156402D01*
X0022896Y0156481D01*
X0023035Y0156558D01*
X0023176Y0156630D01*
X0023318Y0156700D01*
X0023462Y0156765D01*
X0023608Y0156827D01*
X0023755Y0156885D01*
X0023904Y0156940D01*
X0024054Y0156991D01*
X0024205Y0157038D01*
X0024357Y0157081D01*
X0024510Y0157120D01*
X0024665Y0157156D01*
X0024820Y0157187D01*
X0024976Y0157215D01*
X0025132Y0157239D01*
X0025289Y0157259D01*
X0025447Y0157275D01*
X0025604Y0157287D01*
X0025763Y0157295D01*
X0025921Y0157299D01*
X0026079Y0157299D01*
X0026237Y0157295D01*
X0026396Y0157287D01*
X0026553Y0157275D01*
X0026711Y0157259D01*
X0026868Y0157239D01*
X0027024Y0157215D01*
X0027180Y0157187D01*
X0027335Y0157156D01*
X0027490Y0157120D01*
X0027643Y0157081D01*
X0027795Y0157038D01*
X0027946Y0156991D01*
X0028096Y0156940D01*
X0028245Y0156885D01*
X0028392Y0156827D01*
X0028538Y0156765D01*
X0028682Y0156700D01*
X0028824Y0156630D01*
X0028965Y0156558D01*
X0029104Y0156481D01*
X0029240Y0156402D01*
X0029375Y0156318D01*
X0029508Y0156232D01*
X0029638Y0156142D01*
X0029766Y0156049D01*
X0029892Y0155953D01*
X0030015Y0155853D01*
X0030136Y0155751D01*
X0030254Y0155646D01*
X0030369Y0155537D01*
X0030482Y0155426D01*
X0030592Y0155312D01*
X0030699Y0155195D01*
X0030803Y0155076D01*
X0030904Y0154954D01*
X0031001Y0154829D01*
X0031096Y0154702D01*
X0031187Y0154573D01*
X0031276Y0154442D01*
X0031360Y0154308D01*
X0031442Y0154172D01*
X0031520Y0154035D01*
X0031594Y0153895D01*
X0031665Y0153753D01*
X0031733Y0153610D01*
X0031797Y0153465D01*
X0031857Y0153319D01*
X0031913Y0153171D01*
X0031966Y0153022D01*
X0032015Y0152871D01*
X0032060Y0152719D01*
X0032101Y0152566D01*
X0032139Y0152413D01*
X0032172Y0152258D01*
X0032202Y0152102D01*
X0032228Y0151946D01*
X0032249Y0151789D01*
X0032267Y0151632D01*
X0032281Y0151474D01*
X0032291Y0151316D01*
X0032297Y0151158D01*
X0032299Y0151000D01*
X0032297Y0150842D01*
X0032291Y0150684D01*
X0032281Y0150526D01*
X0032267Y0150368D01*
X0032249Y0150211D01*
X0032228Y0150054D01*
X0032202Y0149898D01*
X0032172Y0149742D01*
X0032139Y0149587D01*
X0032101Y0149434D01*
X0032060Y0149281D01*
X0032015Y0149129D01*
X0031966Y0148978D01*
X0031913Y0148829D01*
X0031857Y0148681D01*
X0031797Y0148535D01*
X0031733Y0148390D01*
X0031665Y0148247D01*
X0031594Y0148105D01*
X0031520Y0147965D01*
X0031442Y0147828D01*
X0031360Y0147692D01*
X0031276Y0147558D01*
X0031187Y0147427D01*
X0031096Y0147298D01*
X0031001Y0147171D01*
X0030904Y0147046D01*
X0030803Y0146924D01*
X0030699Y0146805D01*
X0030592Y0146688D01*
X0030482Y0146574D01*
X0030369Y0146463D01*
X0030254Y0146354D01*
X0030136Y0146249D01*
X0030015Y0146147D01*
X0029892Y0146047D01*
X0029766Y0145951D01*
X0029638Y0145858D01*
X0029508Y0145768D01*
X0029375Y0145682D01*
X0029240Y0145598D01*
X0029104Y0145519D01*
X0028965Y0145442D01*
X0028824Y0145370D01*
X0028682Y0145300D01*
X0028538Y0145235D01*
X0028392Y0145173D01*
X0028245Y0145115D01*
X0028096Y0145060D01*
X0027946Y0145009D01*
X0027795Y0144962D01*
X0027643Y0144919D01*
X0027490Y0144880D01*
X0027335Y0144844D01*
X0027180Y0144813D01*
X0027024Y0144785D01*
X0026868Y0144761D01*
X0026711Y0144741D01*
X0026553Y0144725D01*
X0026396Y0144713D01*
X0026237Y0144705D01*
X0026079Y0144701D01*
X0025921Y0144701D01*
X0025763Y0144705D01*
X0025604Y0144713D01*
X0025447Y0144725D01*
X0025289Y0144741D01*
X0025132Y0144761D01*
X0024976Y0144785D01*
X0024820Y0144813D01*
X0024665Y0144844D01*
X0024510Y0144880D01*
X0024357Y0144919D01*
X0024205Y0144962D01*
X0024054Y0145009D01*
X0023904Y0145060D01*
X0023755Y0145115D01*
X0023608Y0145173D01*
X0023462Y0145235D01*
X0023318Y0145300D01*
X0023176Y0145370D01*
X0023035Y0145442D01*
X0022896Y0145519D01*
X0022760Y0145598D01*
X0022625Y0145682D01*
X0022492Y0145768D01*
X0022362Y0145858D01*
X0022234Y0145951D01*
X0022108Y0146047D01*
X0021985Y0146147D01*
X0021864Y0146249D01*
X0021746Y0146354D01*
X0021631Y0146463D01*
X0021518Y0146574D01*
X0021408Y0146688D01*
X0021301Y0146805D01*
X0021197Y0146924D01*
X0021096Y0147046D01*
X0020999Y0147171D01*
X0020904Y0147298D01*
X0020813Y0147427D01*
X0020724Y0147558D01*
X0020640Y0147692D01*
X0020558Y0147828D01*
X0020480Y0147965D01*
X0020406Y0148105D01*
X0020335Y0148247D01*
X0020267Y0148390D01*
X0020203Y0148535D01*
X0020143Y0148681D01*
X0020087Y0148829D01*
X0020034Y0148978D01*
X0019985Y0149129D01*
X0019940Y0149281D01*
X0019899Y0149434D01*
X0019861Y0149587D01*
X0019828Y0149742D01*
X0019798Y0149898D01*
X0019772Y0150054D01*
X0019751Y0150211D01*
X0019733Y0150368D01*
X0019719Y0150526D01*
X0019709Y0150684D01*
X0019703Y0150842D01*
X0019701Y0151000D01*
X0159701Y0151000D02*
X0159703Y0151158D01*
X0159709Y0151316D01*
X0159719Y0151474D01*
X0159733Y0151632D01*
X0159751Y0151789D01*
X0159772Y0151946D01*
X0159798Y0152102D01*
X0159828Y0152258D01*
X0159861Y0152413D01*
X0159899Y0152566D01*
X0159940Y0152719D01*
X0159985Y0152871D01*
X0160034Y0153022D01*
X0160087Y0153171D01*
X0160143Y0153319D01*
X0160203Y0153465D01*
X0160267Y0153610D01*
X0160335Y0153753D01*
X0160406Y0153895D01*
X0160480Y0154035D01*
X0160558Y0154172D01*
X0160640Y0154308D01*
X0160724Y0154442D01*
X0160813Y0154573D01*
X0160904Y0154702D01*
X0160999Y0154829D01*
X0161096Y0154954D01*
X0161197Y0155076D01*
X0161301Y0155195D01*
X0161408Y0155312D01*
X0161518Y0155426D01*
X0161631Y0155537D01*
X0161746Y0155646D01*
X0161864Y0155751D01*
X0161985Y0155853D01*
X0162108Y0155953D01*
X0162234Y0156049D01*
X0162362Y0156142D01*
X0162492Y0156232D01*
X0162625Y0156318D01*
X0162760Y0156402D01*
X0162896Y0156481D01*
X0163035Y0156558D01*
X0163176Y0156630D01*
X0163318Y0156700D01*
X0163462Y0156765D01*
X0163608Y0156827D01*
X0163755Y0156885D01*
X0163904Y0156940D01*
X0164054Y0156991D01*
X0164205Y0157038D01*
X0164357Y0157081D01*
X0164510Y0157120D01*
X0164665Y0157156D01*
X0164820Y0157187D01*
X0164976Y0157215D01*
X0165132Y0157239D01*
X0165289Y0157259D01*
X0165447Y0157275D01*
X0165604Y0157287D01*
X0165763Y0157295D01*
X0165921Y0157299D01*
X0166079Y0157299D01*
X0166237Y0157295D01*
X0166396Y0157287D01*
X0166553Y0157275D01*
X0166711Y0157259D01*
X0166868Y0157239D01*
X0167024Y0157215D01*
X0167180Y0157187D01*
X0167335Y0157156D01*
X0167490Y0157120D01*
X0167643Y0157081D01*
X0167795Y0157038D01*
X0167946Y0156991D01*
X0168096Y0156940D01*
X0168245Y0156885D01*
X0168392Y0156827D01*
X0168538Y0156765D01*
X0168682Y0156700D01*
X0168824Y0156630D01*
X0168965Y0156558D01*
X0169104Y0156481D01*
X0169240Y0156402D01*
X0169375Y0156318D01*
X0169508Y0156232D01*
X0169638Y0156142D01*
X0169766Y0156049D01*
X0169892Y0155953D01*
X0170015Y0155853D01*
X0170136Y0155751D01*
X0170254Y0155646D01*
X0170369Y0155537D01*
X0170482Y0155426D01*
X0170592Y0155312D01*
X0170699Y0155195D01*
X0170803Y0155076D01*
X0170904Y0154954D01*
X0171001Y0154829D01*
X0171096Y0154702D01*
X0171187Y0154573D01*
X0171276Y0154442D01*
X0171360Y0154308D01*
X0171442Y0154172D01*
X0171520Y0154035D01*
X0171594Y0153895D01*
X0171665Y0153753D01*
X0171733Y0153610D01*
X0171797Y0153465D01*
X0171857Y0153319D01*
X0171913Y0153171D01*
X0171966Y0153022D01*
X0172015Y0152871D01*
X0172060Y0152719D01*
X0172101Y0152566D01*
X0172139Y0152413D01*
X0172172Y0152258D01*
X0172202Y0152102D01*
X0172228Y0151946D01*
X0172249Y0151789D01*
X0172267Y0151632D01*
X0172281Y0151474D01*
X0172291Y0151316D01*
X0172297Y0151158D01*
X0172299Y0151000D01*
X0172297Y0150842D01*
X0172291Y0150684D01*
X0172281Y0150526D01*
X0172267Y0150368D01*
X0172249Y0150211D01*
X0172228Y0150054D01*
X0172202Y0149898D01*
X0172172Y0149742D01*
X0172139Y0149587D01*
X0172101Y0149434D01*
X0172060Y0149281D01*
X0172015Y0149129D01*
X0171966Y0148978D01*
X0171913Y0148829D01*
X0171857Y0148681D01*
X0171797Y0148535D01*
X0171733Y0148390D01*
X0171665Y0148247D01*
X0171594Y0148105D01*
X0171520Y0147965D01*
X0171442Y0147828D01*
X0171360Y0147692D01*
X0171276Y0147558D01*
X0171187Y0147427D01*
X0171096Y0147298D01*
X0171001Y0147171D01*
X0170904Y0147046D01*
X0170803Y0146924D01*
X0170699Y0146805D01*
X0170592Y0146688D01*
X0170482Y0146574D01*
X0170369Y0146463D01*
X0170254Y0146354D01*
X0170136Y0146249D01*
X0170015Y0146147D01*
X0169892Y0146047D01*
X0169766Y0145951D01*
X0169638Y0145858D01*
X0169508Y0145768D01*
X0169375Y0145682D01*
X0169240Y0145598D01*
X0169104Y0145519D01*
X0168965Y0145442D01*
X0168824Y0145370D01*
X0168682Y0145300D01*
X0168538Y0145235D01*
X0168392Y0145173D01*
X0168245Y0145115D01*
X0168096Y0145060D01*
X0167946Y0145009D01*
X0167795Y0144962D01*
X0167643Y0144919D01*
X0167490Y0144880D01*
X0167335Y0144844D01*
X0167180Y0144813D01*
X0167024Y0144785D01*
X0166868Y0144761D01*
X0166711Y0144741D01*
X0166553Y0144725D01*
X0166396Y0144713D01*
X0166237Y0144705D01*
X0166079Y0144701D01*
X0165921Y0144701D01*
X0165763Y0144705D01*
X0165604Y0144713D01*
X0165447Y0144725D01*
X0165289Y0144741D01*
X0165132Y0144761D01*
X0164976Y0144785D01*
X0164820Y0144813D01*
X0164665Y0144844D01*
X0164510Y0144880D01*
X0164357Y0144919D01*
X0164205Y0144962D01*
X0164054Y0145009D01*
X0163904Y0145060D01*
X0163755Y0145115D01*
X0163608Y0145173D01*
X0163462Y0145235D01*
X0163318Y0145300D01*
X0163176Y0145370D01*
X0163035Y0145442D01*
X0162896Y0145519D01*
X0162760Y0145598D01*
X0162625Y0145682D01*
X0162492Y0145768D01*
X0162362Y0145858D01*
X0162234Y0145951D01*
X0162108Y0146047D01*
X0161985Y0146147D01*
X0161864Y0146249D01*
X0161746Y0146354D01*
X0161631Y0146463D01*
X0161518Y0146574D01*
X0161408Y0146688D01*
X0161301Y0146805D01*
X0161197Y0146924D01*
X0161096Y0147046D01*
X0160999Y0147171D01*
X0160904Y0147298D01*
X0160813Y0147427D01*
X0160724Y0147558D01*
X0160640Y0147692D01*
X0160558Y0147828D01*
X0160480Y0147965D01*
X0160406Y0148105D01*
X0160335Y0148247D01*
X0160267Y0148390D01*
X0160203Y0148535D01*
X0160143Y0148681D01*
X0160087Y0148829D01*
X0160034Y0148978D01*
X0159985Y0149129D01*
X0159940Y0149281D01*
X0159899Y0149434D01*
X0159861Y0149587D01*
X0159828Y0149742D01*
X0159798Y0149898D01*
X0159772Y0150054D01*
X0159751Y0150211D01*
X0159733Y0150368D01*
X0159719Y0150526D01*
X0159709Y0150684D01*
X0159703Y0150842D01*
X0159701Y0151000D01*
X0159701Y0031000D02*
X0159703Y0031158D01*
X0159709Y0031316D01*
X0159719Y0031474D01*
X0159733Y0031632D01*
X0159751Y0031789D01*
X0159772Y0031946D01*
X0159798Y0032102D01*
X0159828Y0032258D01*
X0159861Y0032413D01*
X0159899Y0032566D01*
X0159940Y0032719D01*
X0159985Y0032871D01*
X0160034Y0033022D01*
X0160087Y0033171D01*
X0160143Y0033319D01*
X0160203Y0033465D01*
X0160267Y0033610D01*
X0160335Y0033753D01*
X0160406Y0033895D01*
X0160480Y0034035D01*
X0160558Y0034172D01*
X0160640Y0034308D01*
X0160724Y0034442D01*
X0160813Y0034573D01*
X0160904Y0034702D01*
X0160999Y0034829D01*
X0161096Y0034954D01*
X0161197Y0035076D01*
X0161301Y0035195D01*
X0161408Y0035312D01*
X0161518Y0035426D01*
X0161631Y0035537D01*
X0161746Y0035646D01*
X0161864Y0035751D01*
X0161985Y0035853D01*
X0162108Y0035953D01*
X0162234Y0036049D01*
X0162362Y0036142D01*
X0162492Y0036232D01*
X0162625Y0036318D01*
X0162760Y0036402D01*
X0162896Y0036481D01*
X0163035Y0036558D01*
X0163176Y0036630D01*
X0163318Y0036700D01*
X0163462Y0036765D01*
X0163608Y0036827D01*
X0163755Y0036885D01*
X0163904Y0036940D01*
X0164054Y0036991D01*
X0164205Y0037038D01*
X0164357Y0037081D01*
X0164510Y0037120D01*
X0164665Y0037156D01*
X0164820Y0037187D01*
X0164976Y0037215D01*
X0165132Y0037239D01*
X0165289Y0037259D01*
X0165447Y0037275D01*
X0165604Y0037287D01*
X0165763Y0037295D01*
X0165921Y0037299D01*
X0166079Y0037299D01*
X0166237Y0037295D01*
X0166396Y0037287D01*
X0166553Y0037275D01*
X0166711Y0037259D01*
X0166868Y0037239D01*
X0167024Y0037215D01*
X0167180Y0037187D01*
X0167335Y0037156D01*
X0167490Y0037120D01*
X0167643Y0037081D01*
X0167795Y0037038D01*
X0167946Y0036991D01*
X0168096Y0036940D01*
X0168245Y0036885D01*
X0168392Y0036827D01*
X0168538Y0036765D01*
X0168682Y0036700D01*
X0168824Y0036630D01*
X0168965Y0036558D01*
X0169104Y0036481D01*
X0169240Y0036402D01*
X0169375Y0036318D01*
X0169508Y0036232D01*
X0169638Y0036142D01*
X0169766Y0036049D01*
X0169892Y0035953D01*
X0170015Y0035853D01*
X0170136Y0035751D01*
X0170254Y0035646D01*
X0170369Y0035537D01*
X0170482Y0035426D01*
X0170592Y0035312D01*
X0170699Y0035195D01*
X0170803Y0035076D01*
X0170904Y0034954D01*
X0171001Y0034829D01*
X0171096Y0034702D01*
X0171187Y0034573D01*
X0171276Y0034442D01*
X0171360Y0034308D01*
X0171442Y0034172D01*
X0171520Y0034035D01*
X0171594Y0033895D01*
X0171665Y0033753D01*
X0171733Y0033610D01*
X0171797Y0033465D01*
X0171857Y0033319D01*
X0171913Y0033171D01*
X0171966Y0033022D01*
X0172015Y0032871D01*
X0172060Y0032719D01*
X0172101Y0032566D01*
X0172139Y0032413D01*
X0172172Y0032258D01*
X0172202Y0032102D01*
X0172228Y0031946D01*
X0172249Y0031789D01*
X0172267Y0031632D01*
X0172281Y0031474D01*
X0172291Y0031316D01*
X0172297Y0031158D01*
X0172299Y0031000D01*
X0172297Y0030842D01*
X0172291Y0030684D01*
X0172281Y0030526D01*
X0172267Y0030368D01*
X0172249Y0030211D01*
X0172228Y0030054D01*
X0172202Y0029898D01*
X0172172Y0029742D01*
X0172139Y0029587D01*
X0172101Y0029434D01*
X0172060Y0029281D01*
X0172015Y0029129D01*
X0171966Y0028978D01*
X0171913Y0028829D01*
X0171857Y0028681D01*
X0171797Y0028535D01*
X0171733Y0028390D01*
X0171665Y0028247D01*
X0171594Y0028105D01*
X0171520Y0027965D01*
X0171442Y0027828D01*
X0171360Y0027692D01*
X0171276Y0027558D01*
X0171187Y0027427D01*
X0171096Y0027298D01*
X0171001Y0027171D01*
X0170904Y0027046D01*
X0170803Y0026924D01*
X0170699Y0026805D01*
X0170592Y0026688D01*
X0170482Y0026574D01*
X0170369Y0026463D01*
X0170254Y0026354D01*
X0170136Y0026249D01*
X0170015Y0026147D01*
X0169892Y0026047D01*
X0169766Y0025951D01*
X0169638Y0025858D01*
X0169508Y0025768D01*
X0169375Y0025682D01*
X0169240Y0025598D01*
X0169104Y0025519D01*
X0168965Y0025442D01*
X0168824Y0025370D01*
X0168682Y0025300D01*
X0168538Y0025235D01*
X0168392Y0025173D01*
X0168245Y0025115D01*
X0168096Y0025060D01*
X0167946Y0025009D01*
X0167795Y0024962D01*
X0167643Y0024919D01*
X0167490Y0024880D01*
X0167335Y0024844D01*
X0167180Y0024813D01*
X0167024Y0024785D01*
X0166868Y0024761D01*
X0166711Y0024741D01*
X0166553Y0024725D01*
X0166396Y0024713D01*
X0166237Y0024705D01*
X0166079Y0024701D01*
X0165921Y0024701D01*
X0165763Y0024705D01*
X0165604Y0024713D01*
X0165447Y0024725D01*
X0165289Y0024741D01*
X0165132Y0024761D01*
X0164976Y0024785D01*
X0164820Y0024813D01*
X0164665Y0024844D01*
X0164510Y0024880D01*
X0164357Y0024919D01*
X0164205Y0024962D01*
X0164054Y0025009D01*
X0163904Y0025060D01*
X0163755Y0025115D01*
X0163608Y0025173D01*
X0163462Y0025235D01*
X0163318Y0025300D01*
X0163176Y0025370D01*
X0163035Y0025442D01*
X0162896Y0025519D01*
X0162760Y0025598D01*
X0162625Y0025682D01*
X0162492Y0025768D01*
X0162362Y0025858D01*
X0162234Y0025951D01*
X0162108Y0026047D01*
X0161985Y0026147D01*
X0161864Y0026249D01*
X0161746Y0026354D01*
X0161631Y0026463D01*
X0161518Y0026574D01*
X0161408Y0026688D01*
X0161301Y0026805D01*
X0161197Y0026924D01*
X0161096Y0027046D01*
X0160999Y0027171D01*
X0160904Y0027298D01*
X0160813Y0027427D01*
X0160724Y0027558D01*
X0160640Y0027692D01*
X0160558Y0027828D01*
X0160480Y0027965D01*
X0160406Y0028105D01*
X0160335Y0028247D01*
X0160267Y0028390D01*
X0160203Y0028535D01*
X0160143Y0028681D01*
X0160087Y0028829D01*
X0160034Y0028978D01*
X0159985Y0029129D01*
X0159940Y0029281D01*
X0159899Y0029434D01*
X0159861Y0029587D01*
X0159828Y0029742D01*
X0159798Y0029898D01*
X0159772Y0030054D01*
X0159751Y0030211D01*
X0159733Y0030368D01*
X0159719Y0030526D01*
X0159709Y0030684D01*
X0159703Y0030842D01*
X0159701Y0031000D01*
D11*
X0138500Y0034800D02*
X0136000Y0034800D01*
X0133500Y0034800D01*
X0133500Y0037300D02*
X0136000Y0037300D01*
X0138500Y0037300D01*
X0118500Y0037300D02*
X0116000Y0037300D01*
X0113500Y0037300D01*
X0113500Y0034800D02*
X0116000Y0034800D01*
X0118500Y0034800D01*
D12*
X0116000Y0034800D02*
X0116000Y0030000D01*
X0116000Y0037300D02*
X0116000Y0042000D01*
X0125000Y0050500D02*
X0125060Y0050498D01*
X0125121Y0050493D01*
X0125180Y0050484D01*
X0125239Y0050471D01*
X0125298Y0050455D01*
X0125355Y0050435D01*
X0125410Y0050412D01*
X0125465Y0050385D01*
X0125517Y0050356D01*
X0125568Y0050323D01*
X0125617Y0050287D01*
X0125663Y0050249D01*
X0125707Y0050207D01*
X0125749Y0050163D01*
X0125787Y0050117D01*
X0125823Y0050068D01*
X0125856Y0050017D01*
X0125885Y0049965D01*
X0125912Y0049910D01*
X0125935Y0049855D01*
X0125955Y0049798D01*
X0125971Y0049739D01*
X0125984Y0049680D01*
X0125993Y0049621D01*
X0125998Y0049560D01*
X0126000Y0049500D01*
X0126000Y0022500D01*
X0126000Y0049500D01*
X0126002Y0049560D01*
X0126007Y0049621D01*
X0126016Y0049680D01*
X0126029Y0049739D01*
X0126045Y0049798D01*
X0126065Y0049855D01*
X0126088Y0049910D01*
X0126115Y0049965D01*
X0126144Y0050017D01*
X0126177Y0050068D01*
X0126213Y0050117D01*
X0126251Y0050163D01*
X0126293Y0050207D01*
X0126337Y0050249D01*
X0126383Y0050287D01*
X0126432Y0050323D01*
X0126483Y0050356D01*
X0126535Y0050385D01*
X0126590Y0050412D01*
X0126645Y0050435D01*
X0126702Y0050455D01*
X0126761Y0050471D01*
X0126820Y0050484D01*
X0126879Y0050493D01*
X0126940Y0050498D01*
X0127000Y0050500D01*
X0145000Y0050500D01*
X0145060Y0050498D01*
X0145121Y0050493D01*
X0145180Y0050484D01*
X0145239Y0050471D01*
X0145298Y0050455D01*
X0145355Y0050435D01*
X0145410Y0050412D01*
X0145465Y0050385D01*
X0145517Y0050356D01*
X0145568Y0050323D01*
X0145617Y0050287D01*
X0145663Y0050249D01*
X0145707Y0050207D01*
X0145749Y0050163D01*
X0145787Y0050117D01*
X0145823Y0050068D01*
X0145856Y0050017D01*
X0145885Y0049965D01*
X0145912Y0049910D01*
X0145935Y0049855D01*
X0145955Y0049798D01*
X0145971Y0049739D01*
X0145984Y0049680D01*
X0145993Y0049621D01*
X0145998Y0049560D01*
X0146000Y0049500D01*
X0146000Y0022500D01*
X0145998Y0022440D01*
X0145993Y0022379D01*
X0145984Y0022320D01*
X0145971Y0022261D01*
X0145955Y0022202D01*
X0145935Y0022145D01*
X0145912Y0022090D01*
X0145885Y0022035D01*
X0145856Y0021983D01*
X0145823Y0021932D01*
X0145787Y0021883D01*
X0145749Y0021837D01*
X0145707Y0021793D01*
X0145663Y0021751D01*
X0145617Y0021713D01*
X0145568Y0021677D01*
X0145517Y0021644D01*
X0145465Y0021615D01*
X0145410Y0021588D01*
X0145355Y0021565D01*
X0145298Y0021545D01*
X0145239Y0021529D01*
X0145180Y0021516D01*
X0145121Y0021507D01*
X0145060Y0021502D01*
X0145000Y0021500D01*
X0127000Y0021500D01*
X0126940Y0021502D01*
X0126879Y0021507D01*
X0126820Y0021516D01*
X0126761Y0021529D01*
X0126702Y0021545D01*
X0126645Y0021565D01*
X0126590Y0021588D01*
X0126535Y0021615D01*
X0126483Y0021644D01*
X0126432Y0021677D01*
X0126383Y0021713D01*
X0126337Y0021751D01*
X0126293Y0021793D01*
X0126251Y0021837D01*
X0126213Y0021883D01*
X0126177Y0021932D01*
X0126144Y0021983D01*
X0126115Y0022035D01*
X0126088Y0022090D01*
X0126065Y0022145D01*
X0126045Y0022202D01*
X0126029Y0022261D01*
X0126016Y0022320D01*
X0126007Y0022379D01*
X0126002Y0022440D01*
X0126000Y0022500D01*
X0125998Y0022440D01*
X0125993Y0022379D01*
X0125984Y0022320D01*
X0125971Y0022261D01*
X0125955Y0022202D01*
X0125935Y0022145D01*
X0125912Y0022090D01*
X0125885Y0022035D01*
X0125856Y0021983D01*
X0125823Y0021932D01*
X0125787Y0021883D01*
X0125749Y0021837D01*
X0125707Y0021793D01*
X0125663Y0021751D01*
X0125617Y0021713D01*
X0125568Y0021677D01*
X0125517Y0021644D01*
X0125465Y0021615D01*
X0125410Y0021588D01*
X0125355Y0021565D01*
X0125298Y0021545D01*
X0125239Y0021529D01*
X0125180Y0021516D01*
X0125121Y0021507D01*
X0125060Y0021502D01*
X0125000Y0021500D01*
X0107000Y0021500D01*
X0106940Y0021502D01*
X0106879Y0021507D01*
X0106820Y0021516D01*
X0106761Y0021529D01*
X0106702Y0021545D01*
X0106645Y0021565D01*
X0106590Y0021588D01*
X0106535Y0021615D01*
X0106483Y0021644D01*
X0106432Y0021677D01*
X0106383Y0021713D01*
X0106337Y0021751D01*
X0106293Y0021793D01*
X0106251Y0021837D01*
X0106213Y0021883D01*
X0106177Y0021932D01*
X0106144Y0021983D01*
X0106115Y0022035D01*
X0106088Y0022090D01*
X0106065Y0022145D01*
X0106045Y0022202D01*
X0106029Y0022261D01*
X0106016Y0022320D01*
X0106007Y0022379D01*
X0106002Y0022440D01*
X0106000Y0022500D01*
X0106000Y0049500D01*
X0106002Y0049560D01*
X0106007Y0049621D01*
X0106016Y0049680D01*
X0106029Y0049739D01*
X0106045Y0049798D01*
X0106065Y0049855D01*
X0106088Y0049910D01*
X0106115Y0049965D01*
X0106144Y0050017D01*
X0106177Y0050068D01*
X0106213Y0050117D01*
X0106251Y0050163D01*
X0106293Y0050207D01*
X0106337Y0050249D01*
X0106383Y0050287D01*
X0106432Y0050323D01*
X0106483Y0050356D01*
X0106535Y0050385D01*
X0106590Y0050412D01*
X0106645Y0050435D01*
X0106702Y0050455D01*
X0106761Y0050471D01*
X0106820Y0050484D01*
X0106879Y0050493D01*
X0106940Y0050498D01*
X0107000Y0050500D01*
X0125000Y0050500D01*
X0124500Y0061000D02*
X0132000Y0061000D01*
X0132002Y0061126D01*
X0132008Y0061251D01*
X0132018Y0061376D01*
X0132032Y0061501D01*
X0132049Y0061626D01*
X0132071Y0061750D01*
X0132096Y0061873D01*
X0132126Y0061995D01*
X0132159Y0062116D01*
X0132196Y0062236D01*
X0132236Y0062355D01*
X0132281Y0062472D01*
X0132329Y0062589D01*
X0132381Y0062703D01*
X0132436Y0062816D01*
X0132495Y0062927D01*
X0132557Y0063036D01*
X0132623Y0063143D01*
X0132692Y0063248D01*
X0132764Y0063351D01*
X0132839Y0063452D01*
X0132918Y0063550D01*
X0133000Y0063645D01*
X0133084Y0063738D01*
X0133172Y0063828D01*
X0133262Y0063916D01*
X0133355Y0064000D01*
X0133450Y0064082D01*
X0133548Y0064161D01*
X0133649Y0064236D01*
X0133752Y0064308D01*
X0133857Y0064377D01*
X0133964Y0064443D01*
X0134073Y0064505D01*
X0134184Y0064564D01*
X0134297Y0064619D01*
X0134411Y0064671D01*
X0134528Y0064719D01*
X0134645Y0064764D01*
X0134764Y0064804D01*
X0134884Y0064841D01*
X0135005Y0064874D01*
X0135127Y0064904D01*
X0135250Y0064929D01*
X0135374Y0064951D01*
X0135499Y0064968D01*
X0135624Y0064982D01*
X0135749Y0064992D01*
X0135874Y0064998D01*
X0136000Y0065000D01*
X0136126Y0064998D01*
X0136251Y0064992D01*
X0136376Y0064982D01*
X0136501Y0064968D01*
X0136626Y0064951D01*
X0136750Y0064929D01*
X0136873Y0064904D01*
X0136995Y0064874D01*
X0137116Y0064841D01*
X0137236Y0064804D01*
X0137355Y0064764D01*
X0137472Y0064719D01*
X0137589Y0064671D01*
X0137703Y0064619D01*
X0137816Y0064564D01*
X0137927Y0064505D01*
X0138036Y0064443D01*
X0138143Y0064377D01*
X0138248Y0064308D01*
X0138351Y0064236D01*
X0138452Y0064161D01*
X0138550Y0064082D01*
X0138645Y0064000D01*
X0138738Y0063916D01*
X0138828Y0063828D01*
X0138916Y0063738D01*
X0139000Y0063645D01*
X0139082Y0063550D01*
X0139161Y0063452D01*
X0139236Y0063351D01*
X0139308Y0063248D01*
X0139377Y0063143D01*
X0139443Y0063036D01*
X0139505Y0062927D01*
X0139564Y0062816D01*
X0139619Y0062703D01*
X0139671Y0062589D01*
X0139719Y0062472D01*
X0139764Y0062355D01*
X0139804Y0062236D01*
X0139841Y0062116D01*
X0139874Y0061995D01*
X0139904Y0061873D01*
X0139929Y0061750D01*
X0139951Y0061626D01*
X0139968Y0061501D01*
X0139982Y0061376D01*
X0139992Y0061251D01*
X0139998Y0061126D01*
X0140000Y0061000D01*
X0147500Y0061000D01*
X0147500Y0131000D01*
X0124500Y0131000D01*
X0124500Y0061000D01*
X0136000Y0042000D02*
X0136000Y0037300D01*
X0136000Y0034800D02*
X0136000Y0030000D01*
X0146000Y0051000D02*
X0146002Y0051141D01*
X0146008Y0051282D01*
X0146018Y0051422D01*
X0146032Y0051562D01*
X0146050Y0051702D01*
X0146071Y0051841D01*
X0146097Y0051980D01*
X0146126Y0052118D01*
X0146160Y0052254D01*
X0146197Y0052390D01*
X0146238Y0052525D01*
X0146283Y0052659D01*
X0146332Y0052791D01*
X0146384Y0052922D01*
X0146440Y0053051D01*
X0146500Y0053178D01*
X0146563Y0053304D01*
X0146629Y0053428D01*
X0146700Y0053551D01*
X0146773Y0053671D01*
X0146850Y0053789D01*
X0146930Y0053905D01*
X0147014Y0054018D01*
X0147100Y0054129D01*
X0147190Y0054238D01*
X0147283Y0054344D01*
X0147378Y0054447D01*
X0147477Y0054548D01*
X0147578Y0054646D01*
X0147682Y0054741D01*
X0147789Y0054833D01*
X0147898Y0054922D01*
X0148010Y0055007D01*
X0148124Y0055090D01*
X0148240Y0055170D01*
X0148359Y0055246D01*
X0148480Y0055318D01*
X0148602Y0055388D01*
X0148727Y0055453D01*
X0148853Y0055516D01*
X0148981Y0055574D01*
X0149111Y0055629D01*
X0149242Y0055681D01*
X0149375Y0055728D01*
X0149509Y0055772D01*
X0149644Y0055813D01*
X0149780Y0055849D01*
X0149917Y0055881D01*
X0150055Y0055910D01*
X0150193Y0055935D01*
X0150333Y0055955D01*
X0150473Y0055972D01*
X0150613Y0055985D01*
X0150754Y0055994D01*
X0150894Y0055999D01*
X0151035Y0056000D01*
X0151176Y0055997D01*
X0151317Y0055990D01*
X0151457Y0055979D01*
X0151597Y0055964D01*
X0151737Y0055945D01*
X0151876Y0055923D01*
X0152014Y0055896D01*
X0152152Y0055866D01*
X0152288Y0055831D01*
X0152424Y0055793D01*
X0152558Y0055751D01*
X0152692Y0055705D01*
X0152824Y0055656D01*
X0152954Y0055602D01*
X0153083Y0055545D01*
X0153210Y0055485D01*
X0153336Y0055421D01*
X0153459Y0055353D01*
X0153581Y0055282D01*
X0153701Y0055208D01*
X0153818Y0055130D01*
X0153933Y0055049D01*
X0154046Y0054965D01*
X0154157Y0054878D01*
X0154265Y0054787D01*
X0154370Y0054694D01*
X0154473Y0054597D01*
X0154573Y0054498D01*
X0154670Y0054396D01*
X0154764Y0054291D01*
X0154855Y0054184D01*
X0154943Y0054074D01*
X0155028Y0053962D01*
X0155110Y0053847D01*
X0155189Y0053730D01*
X0155264Y0053611D01*
X0155336Y0053490D01*
X0155404Y0053367D01*
X0155469Y0053242D01*
X0155531Y0053115D01*
X0155588Y0052986D01*
X0155643Y0052856D01*
X0155693Y0052725D01*
X0155740Y0052592D01*
X0155783Y0052458D01*
X0155822Y0052322D01*
X0155857Y0052186D01*
X0155889Y0052049D01*
X0155916Y0051911D01*
X0155940Y0051772D01*
X0155960Y0051632D01*
X0155976Y0051492D01*
X0155988Y0051352D01*
X0155996Y0051211D01*
X0156000Y0051070D01*
X0156000Y0050930D01*
X0155996Y0050789D01*
X0155988Y0050648D01*
X0155976Y0050508D01*
X0155960Y0050368D01*
X0155940Y0050228D01*
X0155916Y0050089D01*
X0155889Y0049951D01*
X0155857Y0049814D01*
X0155822Y0049678D01*
X0155783Y0049542D01*
X0155740Y0049408D01*
X0155693Y0049275D01*
X0155643Y0049144D01*
X0155588Y0049014D01*
X0155531Y0048885D01*
X0155469Y0048758D01*
X0155404Y0048633D01*
X0155336Y0048510D01*
X0155264Y0048389D01*
X0155189Y0048270D01*
X0155110Y0048153D01*
X0155028Y0048038D01*
X0154943Y0047926D01*
X0154855Y0047816D01*
X0154764Y0047709D01*
X0154670Y0047604D01*
X0154573Y0047502D01*
X0154473Y0047403D01*
X0154370Y0047306D01*
X0154265Y0047213D01*
X0154157Y0047122D01*
X0154046Y0047035D01*
X0153933Y0046951D01*
X0153818Y0046870D01*
X0153701Y0046792D01*
X0153581Y0046718D01*
X0153459Y0046647D01*
X0153336Y0046579D01*
X0153210Y0046515D01*
X0153083Y0046455D01*
X0152954Y0046398D01*
X0152824Y0046344D01*
X0152692Y0046295D01*
X0152558Y0046249D01*
X0152424Y0046207D01*
X0152288Y0046169D01*
X0152152Y0046134D01*
X0152014Y0046104D01*
X0151876Y0046077D01*
X0151737Y0046055D01*
X0151597Y0046036D01*
X0151457Y0046021D01*
X0151317Y0046010D01*
X0151176Y0046003D01*
X0151035Y0046000D01*
X0150894Y0046001D01*
X0150754Y0046006D01*
X0150613Y0046015D01*
X0150473Y0046028D01*
X0150333Y0046045D01*
X0150193Y0046065D01*
X0150055Y0046090D01*
X0149917Y0046119D01*
X0149780Y0046151D01*
X0149644Y0046187D01*
X0149509Y0046228D01*
X0149375Y0046272D01*
X0149242Y0046319D01*
X0149111Y0046371D01*
X0148981Y0046426D01*
X0148853Y0046484D01*
X0148727Y0046547D01*
X0148602Y0046612D01*
X0148480Y0046682D01*
X0148359Y0046754D01*
X0148240Y0046830D01*
X0148124Y0046910D01*
X0148010Y0046993D01*
X0147898Y0047078D01*
X0147789Y0047167D01*
X0147682Y0047259D01*
X0147578Y0047354D01*
X0147477Y0047452D01*
X0147378Y0047553D01*
X0147283Y0047656D01*
X0147190Y0047762D01*
X0147100Y0047871D01*
X0147014Y0047982D01*
X0146930Y0048095D01*
X0146850Y0048211D01*
X0146773Y0048329D01*
X0146700Y0048449D01*
X0146629Y0048572D01*
X0146563Y0048696D01*
X0146500Y0048822D01*
X0146440Y0048949D01*
X0146384Y0049078D01*
X0146332Y0049209D01*
X0146283Y0049341D01*
X0146238Y0049475D01*
X0146197Y0049610D01*
X0146160Y0049746D01*
X0146126Y0049882D01*
X0146097Y0050020D01*
X0146071Y0050159D01*
X0146050Y0050298D01*
X0146032Y0050438D01*
X0146018Y0050578D01*
X0146008Y0050718D01*
X0146002Y0050859D01*
X0146000Y0051000D01*
X0166000Y0076000D02*
X0166002Y0076141D01*
X0166008Y0076282D01*
X0166018Y0076422D01*
X0166032Y0076562D01*
X0166050Y0076702D01*
X0166071Y0076841D01*
X0166097Y0076980D01*
X0166126Y0077118D01*
X0166160Y0077254D01*
X0166197Y0077390D01*
X0166238Y0077525D01*
X0166283Y0077659D01*
X0166332Y0077791D01*
X0166384Y0077922D01*
X0166440Y0078051D01*
X0166500Y0078178D01*
X0166563Y0078304D01*
X0166629Y0078428D01*
X0166700Y0078551D01*
X0166773Y0078671D01*
X0166850Y0078789D01*
X0166930Y0078905D01*
X0167014Y0079018D01*
X0167100Y0079129D01*
X0167190Y0079238D01*
X0167283Y0079344D01*
X0167378Y0079447D01*
X0167477Y0079548D01*
X0167578Y0079646D01*
X0167682Y0079741D01*
X0167789Y0079833D01*
X0167898Y0079922D01*
X0168010Y0080007D01*
X0168124Y0080090D01*
X0168240Y0080170D01*
X0168359Y0080246D01*
X0168480Y0080318D01*
X0168602Y0080388D01*
X0168727Y0080453D01*
X0168853Y0080516D01*
X0168981Y0080574D01*
X0169111Y0080629D01*
X0169242Y0080681D01*
X0169375Y0080728D01*
X0169509Y0080772D01*
X0169644Y0080813D01*
X0169780Y0080849D01*
X0169917Y0080881D01*
X0170055Y0080910D01*
X0170193Y0080935D01*
X0170333Y0080955D01*
X0170473Y0080972D01*
X0170613Y0080985D01*
X0170754Y0080994D01*
X0170894Y0080999D01*
X0171035Y0081000D01*
X0171176Y0080997D01*
X0171317Y0080990D01*
X0171457Y0080979D01*
X0171597Y0080964D01*
X0171737Y0080945D01*
X0171876Y0080923D01*
X0172014Y0080896D01*
X0172152Y0080866D01*
X0172288Y0080831D01*
X0172424Y0080793D01*
X0172558Y0080751D01*
X0172692Y0080705D01*
X0172824Y0080656D01*
X0172954Y0080602D01*
X0173083Y0080545D01*
X0173210Y0080485D01*
X0173336Y0080421D01*
X0173459Y0080353D01*
X0173581Y0080282D01*
X0173701Y0080208D01*
X0173818Y0080130D01*
X0173933Y0080049D01*
X0174046Y0079965D01*
X0174157Y0079878D01*
X0174265Y0079787D01*
X0174370Y0079694D01*
X0174473Y0079597D01*
X0174573Y0079498D01*
X0174670Y0079396D01*
X0174764Y0079291D01*
X0174855Y0079184D01*
X0174943Y0079074D01*
X0175028Y0078962D01*
X0175110Y0078847D01*
X0175189Y0078730D01*
X0175264Y0078611D01*
X0175336Y0078490D01*
X0175404Y0078367D01*
X0175469Y0078242D01*
X0175531Y0078115D01*
X0175588Y0077986D01*
X0175643Y0077856D01*
X0175693Y0077725D01*
X0175740Y0077592D01*
X0175783Y0077458D01*
X0175822Y0077322D01*
X0175857Y0077186D01*
X0175889Y0077049D01*
X0175916Y0076911D01*
X0175940Y0076772D01*
X0175960Y0076632D01*
X0175976Y0076492D01*
X0175988Y0076352D01*
X0175996Y0076211D01*
X0176000Y0076070D01*
X0176000Y0075930D01*
X0175996Y0075789D01*
X0175988Y0075648D01*
X0175976Y0075508D01*
X0175960Y0075368D01*
X0175940Y0075228D01*
X0175916Y0075089D01*
X0175889Y0074951D01*
X0175857Y0074814D01*
X0175822Y0074678D01*
X0175783Y0074542D01*
X0175740Y0074408D01*
X0175693Y0074275D01*
X0175643Y0074144D01*
X0175588Y0074014D01*
X0175531Y0073885D01*
X0175469Y0073758D01*
X0175404Y0073633D01*
X0175336Y0073510D01*
X0175264Y0073389D01*
X0175189Y0073270D01*
X0175110Y0073153D01*
X0175028Y0073038D01*
X0174943Y0072926D01*
X0174855Y0072816D01*
X0174764Y0072709D01*
X0174670Y0072604D01*
X0174573Y0072502D01*
X0174473Y0072403D01*
X0174370Y0072306D01*
X0174265Y0072213D01*
X0174157Y0072122D01*
X0174046Y0072035D01*
X0173933Y0071951D01*
X0173818Y0071870D01*
X0173701Y0071792D01*
X0173581Y0071718D01*
X0173459Y0071647D01*
X0173336Y0071579D01*
X0173210Y0071515D01*
X0173083Y0071455D01*
X0172954Y0071398D01*
X0172824Y0071344D01*
X0172692Y0071295D01*
X0172558Y0071249D01*
X0172424Y0071207D01*
X0172288Y0071169D01*
X0172152Y0071134D01*
X0172014Y0071104D01*
X0171876Y0071077D01*
X0171737Y0071055D01*
X0171597Y0071036D01*
X0171457Y0071021D01*
X0171317Y0071010D01*
X0171176Y0071003D01*
X0171035Y0071000D01*
X0170894Y0071001D01*
X0170754Y0071006D01*
X0170613Y0071015D01*
X0170473Y0071028D01*
X0170333Y0071045D01*
X0170193Y0071065D01*
X0170055Y0071090D01*
X0169917Y0071119D01*
X0169780Y0071151D01*
X0169644Y0071187D01*
X0169509Y0071228D01*
X0169375Y0071272D01*
X0169242Y0071319D01*
X0169111Y0071371D01*
X0168981Y0071426D01*
X0168853Y0071484D01*
X0168727Y0071547D01*
X0168602Y0071612D01*
X0168480Y0071682D01*
X0168359Y0071754D01*
X0168240Y0071830D01*
X0168124Y0071910D01*
X0168010Y0071993D01*
X0167898Y0072078D01*
X0167789Y0072167D01*
X0167682Y0072259D01*
X0167578Y0072354D01*
X0167477Y0072452D01*
X0167378Y0072553D01*
X0167283Y0072656D01*
X0167190Y0072762D01*
X0167100Y0072871D01*
X0167014Y0072982D01*
X0166930Y0073095D01*
X0166850Y0073211D01*
X0166773Y0073329D01*
X0166700Y0073449D01*
X0166629Y0073572D01*
X0166563Y0073696D01*
X0166500Y0073822D01*
X0166440Y0073949D01*
X0166384Y0074078D01*
X0166332Y0074209D01*
X0166283Y0074341D01*
X0166238Y0074475D01*
X0166197Y0074610D01*
X0166160Y0074746D01*
X0166126Y0074882D01*
X0166097Y0075020D01*
X0166071Y0075159D01*
X0166050Y0075298D01*
X0166032Y0075438D01*
X0166018Y0075578D01*
X0166008Y0075718D01*
X0166002Y0075859D01*
X0166000Y0076000D01*
X0166000Y0096000D02*
X0166002Y0096141D01*
X0166008Y0096282D01*
X0166018Y0096422D01*
X0166032Y0096562D01*
X0166050Y0096702D01*
X0166071Y0096841D01*
X0166097Y0096980D01*
X0166126Y0097118D01*
X0166160Y0097254D01*
X0166197Y0097390D01*
X0166238Y0097525D01*
X0166283Y0097659D01*
X0166332Y0097791D01*
X0166384Y0097922D01*
X0166440Y0098051D01*
X0166500Y0098178D01*
X0166563Y0098304D01*
X0166629Y0098428D01*
X0166700Y0098551D01*
X0166773Y0098671D01*
X0166850Y0098789D01*
X0166930Y0098905D01*
X0167014Y0099018D01*
X0167100Y0099129D01*
X0167190Y0099238D01*
X0167283Y0099344D01*
X0167378Y0099447D01*
X0167477Y0099548D01*
X0167578Y0099646D01*
X0167682Y0099741D01*
X0167789Y0099833D01*
X0167898Y0099922D01*
X0168010Y0100007D01*
X0168124Y0100090D01*
X0168240Y0100170D01*
X0168359Y0100246D01*
X0168480Y0100318D01*
X0168602Y0100388D01*
X0168727Y0100453D01*
X0168853Y0100516D01*
X0168981Y0100574D01*
X0169111Y0100629D01*
X0169242Y0100681D01*
X0169375Y0100728D01*
X0169509Y0100772D01*
X0169644Y0100813D01*
X0169780Y0100849D01*
X0169917Y0100881D01*
X0170055Y0100910D01*
X0170193Y0100935D01*
X0170333Y0100955D01*
X0170473Y0100972D01*
X0170613Y0100985D01*
X0170754Y0100994D01*
X0170894Y0100999D01*
X0171035Y0101000D01*
X0171176Y0100997D01*
X0171317Y0100990D01*
X0171457Y0100979D01*
X0171597Y0100964D01*
X0171737Y0100945D01*
X0171876Y0100923D01*
X0172014Y0100896D01*
X0172152Y0100866D01*
X0172288Y0100831D01*
X0172424Y0100793D01*
X0172558Y0100751D01*
X0172692Y0100705D01*
X0172824Y0100656D01*
X0172954Y0100602D01*
X0173083Y0100545D01*
X0173210Y0100485D01*
X0173336Y0100421D01*
X0173459Y0100353D01*
X0173581Y0100282D01*
X0173701Y0100208D01*
X0173818Y0100130D01*
X0173933Y0100049D01*
X0174046Y0099965D01*
X0174157Y0099878D01*
X0174265Y0099787D01*
X0174370Y0099694D01*
X0174473Y0099597D01*
X0174573Y0099498D01*
X0174670Y0099396D01*
X0174764Y0099291D01*
X0174855Y0099184D01*
X0174943Y0099074D01*
X0175028Y0098962D01*
X0175110Y0098847D01*
X0175189Y0098730D01*
X0175264Y0098611D01*
X0175336Y0098490D01*
X0175404Y0098367D01*
X0175469Y0098242D01*
X0175531Y0098115D01*
X0175588Y0097986D01*
X0175643Y0097856D01*
X0175693Y0097725D01*
X0175740Y0097592D01*
X0175783Y0097458D01*
X0175822Y0097322D01*
X0175857Y0097186D01*
X0175889Y0097049D01*
X0175916Y0096911D01*
X0175940Y0096772D01*
X0175960Y0096632D01*
X0175976Y0096492D01*
X0175988Y0096352D01*
X0175996Y0096211D01*
X0176000Y0096070D01*
X0176000Y0095930D01*
X0175996Y0095789D01*
X0175988Y0095648D01*
X0175976Y0095508D01*
X0175960Y0095368D01*
X0175940Y0095228D01*
X0175916Y0095089D01*
X0175889Y0094951D01*
X0175857Y0094814D01*
X0175822Y0094678D01*
X0175783Y0094542D01*
X0175740Y0094408D01*
X0175693Y0094275D01*
X0175643Y0094144D01*
X0175588Y0094014D01*
X0175531Y0093885D01*
X0175469Y0093758D01*
X0175404Y0093633D01*
X0175336Y0093510D01*
X0175264Y0093389D01*
X0175189Y0093270D01*
X0175110Y0093153D01*
X0175028Y0093038D01*
X0174943Y0092926D01*
X0174855Y0092816D01*
X0174764Y0092709D01*
X0174670Y0092604D01*
X0174573Y0092502D01*
X0174473Y0092403D01*
X0174370Y0092306D01*
X0174265Y0092213D01*
X0174157Y0092122D01*
X0174046Y0092035D01*
X0173933Y0091951D01*
X0173818Y0091870D01*
X0173701Y0091792D01*
X0173581Y0091718D01*
X0173459Y0091647D01*
X0173336Y0091579D01*
X0173210Y0091515D01*
X0173083Y0091455D01*
X0172954Y0091398D01*
X0172824Y0091344D01*
X0172692Y0091295D01*
X0172558Y0091249D01*
X0172424Y0091207D01*
X0172288Y0091169D01*
X0172152Y0091134D01*
X0172014Y0091104D01*
X0171876Y0091077D01*
X0171737Y0091055D01*
X0171597Y0091036D01*
X0171457Y0091021D01*
X0171317Y0091010D01*
X0171176Y0091003D01*
X0171035Y0091000D01*
X0170894Y0091001D01*
X0170754Y0091006D01*
X0170613Y0091015D01*
X0170473Y0091028D01*
X0170333Y0091045D01*
X0170193Y0091065D01*
X0170055Y0091090D01*
X0169917Y0091119D01*
X0169780Y0091151D01*
X0169644Y0091187D01*
X0169509Y0091228D01*
X0169375Y0091272D01*
X0169242Y0091319D01*
X0169111Y0091371D01*
X0168981Y0091426D01*
X0168853Y0091484D01*
X0168727Y0091547D01*
X0168602Y0091612D01*
X0168480Y0091682D01*
X0168359Y0091754D01*
X0168240Y0091830D01*
X0168124Y0091910D01*
X0168010Y0091993D01*
X0167898Y0092078D01*
X0167789Y0092167D01*
X0167682Y0092259D01*
X0167578Y0092354D01*
X0167477Y0092452D01*
X0167378Y0092553D01*
X0167283Y0092656D01*
X0167190Y0092762D01*
X0167100Y0092871D01*
X0167014Y0092982D01*
X0166930Y0093095D01*
X0166850Y0093211D01*
X0166773Y0093329D01*
X0166700Y0093449D01*
X0166629Y0093572D01*
X0166563Y0093696D01*
X0166500Y0093822D01*
X0166440Y0093949D01*
X0166384Y0094078D01*
X0166332Y0094209D01*
X0166283Y0094341D01*
X0166238Y0094475D01*
X0166197Y0094610D01*
X0166160Y0094746D01*
X0166126Y0094882D01*
X0166097Y0095020D01*
X0166071Y0095159D01*
X0166050Y0095298D01*
X0166032Y0095438D01*
X0166018Y0095578D01*
X0166008Y0095718D01*
X0166002Y0095859D01*
X0166000Y0096000D01*
X0166000Y0116000D02*
X0166002Y0116141D01*
X0166008Y0116282D01*
X0166018Y0116422D01*
X0166032Y0116562D01*
X0166050Y0116702D01*
X0166071Y0116841D01*
X0166097Y0116980D01*
X0166126Y0117118D01*
X0166160Y0117254D01*
X0166197Y0117390D01*
X0166238Y0117525D01*
X0166283Y0117659D01*
X0166332Y0117791D01*
X0166384Y0117922D01*
X0166440Y0118051D01*
X0166500Y0118178D01*
X0166563Y0118304D01*
X0166629Y0118428D01*
X0166700Y0118551D01*
X0166773Y0118671D01*
X0166850Y0118789D01*
X0166930Y0118905D01*
X0167014Y0119018D01*
X0167100Y0119129D01*
X0167190Y0119238D01*
X0167283Y0119344D01*
X0167378Y0119447D01*
X0167477Y0119548D01*
X0167578Y0119646D01*
X0167682Y0119741D01*
X0167789Y0119833D01*
X0167898Y0119922D01*
X0168010Y0120007D01*
X0168124Y0120090D01*
X0168240Y0120170D01*
X0168359Y0120246D01*
X0168480Y0120318D01*
X0168602Y0120388D01*
X0168727Y0120453D01*
X0168853Y0120516D01*
X0168981Y0120574D01*
X0169111Y0120629D01*
X0169242Y0120681D01*
X0169375Y0120728D01*
X0169509Y0120772D01*
X0169644Y0120813D01*
X0169780Y0120849D01*
X0169917Y0120881D01*
X0170055Y0120910D01*
X0170193Y0120935D01*
X0170333Y0120955D01*
X0170473Y0120972D01*
X0170613Y0120985D01*
X0170754Y0120994D01*
X0170894Y0120999D01*
X0171035Y0121000D01*
X0171176Y0120997D01*
X0171317Y0120990D01*
X0171457Y0120979D01*
X0171597Y0120964D01*
X0171737Y0120945D01*
X0171876Y0120923D01*
X0172014Y0120896D01*
X0172152Y0120866D01*
X0172288Y0120831D01*
X0172424Y0120793D01*
X0172558Y0120751D01*
X0172692Y0120705D01*
X0172824Y0120656D01*
X0172954Y0120602D01*
X0173083Y0120545D01*
X0173210Y0120485D01*
X0173336Y0120421D01*
X0173459Y0120353D01*
X0173581Y0120282D01*
X0173701Y0120208D01*
X0173818Y0120130D01*
X0173933Y0120049D01*
X0174046Y0119965D01*
X0174157Y0119878D01*
X0174265Y0119787D01*
X0174370Y0119694D01*
X0174473Y0119597D01*
X0174573Y0119498D01*
X0174670Y0119396D01*
X0174764Y0119291D01*
X0174855Y0119184D01*
X0174943Y0119074D01*
X0175028Y0118962D01*
X0175110Y0118847D01*
X0175189Y0118730D01*
X0175264Y0118611D01*
X0175336Y0118490D01*
X0175404Y0118367D01*
X0175469Y0118242D01*
X0175531Y0118115D01*
X0175588Y0117986D01*
X0175643Y0117856D01*
X0175693Y0117725D01*
X0175740Y0117592D01*
X0175783Y0117458D01*
X0175822Y0117322D01*
X0175857Y0117186D01*
X0175889Y0117049D01*
X0175916Y0116911D01*
X0175940Y0116772D01*
X0175960Y0116632D01*
X0175976Y0116492D01*
X0175988Y0116352D01*
X0175996Y0116211D01*
X0176000Y0116070D01*
X0176000Y0115930D01*
X0175996Y0115789D01*
X0175988Y0115648D01*
X0175976Y0115508D01*
X0175960Y0115368D01*
X0175940Y0115228D01*
X0175916Y0115089D01*
X0175889Y0114951D01*
X0175857Y0114814D01*
X0175822Y0114678D01*
X0175783Y0114542D01*
X0175740Y0114408D01*
X0175693Y0114275D01*
X0175643Y0114144D01*
X0175588Y0114014D01*
X0175531Y0113885D01*
X0175469Y0113758D01*
X0175404Y0113633D01*
X0175336Y0113510D01*
X0175264Y0113389D01*
X0175189Y0113270D01*
X0175110Y0113153D01*
X0175028Y0113038D01*
X0174943Y0112926D01*
X0174855Y0112816D01*
X0174764Y0112709D01*
X0174670Y0112604D01*
X0174573Y0112502D01*
X0174473Y0112403D01*
X0174370Y0112306D01*
X0174265Y0112213D01*
X0174157Y0112122D01*
X0174046Y0112035D01*
X0173933Y0111951D01*
X0173818Y0111870D01*
X0173701Y0111792D01*
X0173581Y0111718D01*
X0173459Y0111647D01*
X0173336Y0111579D01*
X0173210Y0111515D01*
X0173083Y0111455D01*
X0172954Y0111398D01*
X0172824Y0111344D01*
X0172692Y0111295D01*
X0172558Y0111249D01*
X0172424Y0111207D01*
X0172288Y0111169D01*
X0172152Y0111134D01*
X0172014Y0111104D01*
X0171876Y0111077D01*
X0171737Y0111055D01*
X0171597Y0111036D01*
X0171457Y0111021D01*
X0171317Y0111010D01*
X0171176Y0111003D01*
X0171035Y0111000D01*
X0170894Y0111001D01*
X0170754Y0111006D01*
X0170613Y0111015D01*
X0170473Y0111028D01*
X0170333Y0111045D01*
X0170193Y0111065D01*
X0170055Y0111090D01*
X0169917Y0111119D01*
X0169780Y0111151D01*
X0169644Y0111187D01*
X0169509Y0111228D01*
X0169375Y0111272D01*
X0169242Y0111319D01*
X0169111Y0111371D01*
X0168981Y0111426D01*
X0168853Y0111484D01*
X0168727Y0111547D01*
X0168602Y0111612D01*
X0168480Y0111682D01*
X0168359Y0111754D01*
X0168240Y0111830D01*
X0168124Y0111910D01*
X0168010Y0111993D01*
X0167898Y0112078D01*
X0167789Y0112167D01*
X0167682Y0112259D01*
X0167578Y0112354D01*
X0167477Y0112452D01*
X0167378Y0112553D01*
X0167283Y0112656D01*
X0167190Y0112762D01*
X0167100Y0112871D01*
X0167014Y0112982D01*
X0166930Y0113095D01*
X0166850Y0113211D01*
X0166773Y0113329D01*
X0166700Y0113449D01*
X0166629Y0113572D01*
X0166563Y0113696D01*
X0166500Y0113822D01*
X0166440Y0113949D01*
X0166384Y0114078D01*
X0166332Y0114209D01*
X0166283Y0114341D01*
X0166238Y0114475D01*
X0166197Y0114610D01*
X0166160Y0114746D01*
X0166126Y0114882D01*
X0166097Y0115020D01*
X0166071Y0115159D01*
X0166050Y0115298D01*
X0166032Y0115438D01*
X0166018Y0115578D01*
X0166008Y0115718D01*
X0166002Y0115859D01*
X0166000Y0116000D01*
X0156000Y0131000D02*
X0156002Y0131141D01*
X0156008Y0131282D01*
X0156018Y0131422D01*
X0156032Y0131562D01*
X0156050Y0131702D01*
X0156071Y0131841D01*
X0156097Y0131980D01*
X0156126Y0132118D01*
X0156160Y0132254D01*
X0156197Y0132390D01*
X0156238Y0132525D01*
X0156283Y0132659D01*
X0156332Y0132791D01*
X0156384Y0132922D01*
X0156440Y0133051D01*
X0156500Y0133178D01*
X0156563Y0133304D01*
X0156629Y0133428D01*
X0156700Y0133551D01*
X0156773Y0133671D01*
X0156850Y0133789D01*
X0156930Y0133905D01*
X0157014Y0134018D01*
X0157100Y0134129D01*
X0157190Y0134238D01*
X0157283Y0134344D01*
X0157378Y0134447D01*
X0157477Y0134548D01*
X0157578Y0134646D01*
X0157682Y0134741D01*
X0157789Y0134833D01*
X0157898Y0134922D01*
X0158010Y0135007D01*
X0158124Y0135090D01*
X0158240Y0135170D01*
X0158359Y0135246D01*
X0158480Y0135318D01*
X0158602Y0135388D01*
X0158727Y0135453D01*
X0158853Y0135516D01*
X0158981Y0135574D01*
X0159111Y0135629D01*
X0159242Y0135681D01*
X0159375Y0135728D01*
X0159509Y0135772D01*
X0159644Y0135813D01*
X0159780Y0135849D01*
X0159917Y0135881D01*
X0160055Y0135910D01*
X0160193Y0135935D01*
X0160333Y0135955D01*
X0160473Y0135972D01*
X0160613Y0135985D01*
X0160754Y0135994D01*
X0160894Y0135999D01*
X0161035Y0136000D01*
X0161176Y0135997D01*
X0161317Y0135990D01*
X0161457Y0135979D01*
X0161597Y0135964D01*
X0161737Y0135945D01*
X0161876Y0135923D01*
X0162014Y0135896D01*
X0162152Y0135866D01*
X0162288Y0135831D01*
X0162424Y0135793D01*
X0162558Y0135751D01*
X0162692Y0135705D01*
X0162824Y0135656D01*
X0162954Y0135602D01*
X0163083Y0135545D01*
X0163210Y0135485D01*
X0163336Y0135421D01*
X0163459Y0135353D01*
X0163581Y0135282D01*
X0163701Y0135208D01*
X0163818Y0135130D01*
X0163933Y0135049D01*
X0164046Y0134965D01*
X0164157Y0134878D01*
X0164265Y0134787D01*
X0164370Y0134694D01*
X0164473Y0134597D01*
X0164573Y0134498D01*
X0164670Y0134396D01*
X0164764Y0134291D01*
X0164855Y0134184D01*
X0164943Y0134074D01*
X0165028Y0133962D01*
X0165110Y0133847D01*
X0165189Y0133730D01*
X0165264Y0133611D01*
X0165336Y0133490D01*
X0165404Y0133367D01*
X0165469Y0133242D01*
X0165531Y0133115D01*
X0165588Y0132986D01*
X0165643Y0132856D01*
X0165693Y0132725D01*
X0165740Y0132592D01*
X0165783Y0132458D01*
X0165822Y0132322D01*
X0165857Y0132186D01*
X0165889Y0132049D01*
X0165916Y0131911D01*
X0165940Y0131772D01*
X0165960Y0131632D01*
X0165976Y0131492D01*
X0165988Y0131352D01*
X0165996Y0131211D01*
X0166000Y0131070D01*
X0166000Y0130930D01*
X0165996Y0130789D01*
X0165988Y0130648D01*
X0165976Y0130508D01*
X0165960Y0130368D01*
X0165940Y0130228D01*
X0165916Y0130089D01*
X0165889Y0129951D01*
X0165857Y0129814D01*
X0165822Y0129678D01*
X0165783Y0129542D01*
X0165740Y0129408D01*
X0165693Y0129275D01*
X0165643Y0129144D01*
X0165588Y0129014D01*
X0165531Y0128885D01*
X0165469Y0128758D01*
X0165404Y0128633D01*
X0165336Y0128510D01*
X0165264Y0128389D01*
X0165189Y0128270D01*
X0165110Y0128153D01*
X0165028Y0128038D01*
X0164943Y0127926D01*
X0164855Y0127816D01*
X0164764Y0127709D01*
X0164670Y0127604D01*
X0164573Y0127502D01*
X0164473Y0127403D01*
X0164370Y0127306D01*
X0164265Y0127213D01*
X0164157Y0127122D01*
X0164046Y0127035D01*
X0163933Y0126951D01*
X0163818Y0126870D01*
X0163701Y0126792D01*
X0163581Y0126718D01*
X0163459Y0126647D01*
X0163336Y0126579D01*
X0163210Y0126515D01*
X0163083Y0126455D01*
X0162954Y0126398D01*
X0162824Y0126344D01*
X0162692Y0126295D01*
X0162558Y0126249D01*
X0162424Y0126207D01*
X0162288Y0126169D01*
X0162152Y0126134D01*
X0162014Y0126104D01*
X0161876Y0126077D01*
X0161737Y0126055D01*
X0161597Y0126036D01*
X0161457Y0126021D01*
X0161317Y0126010D01*
X0161176Y0126003D01*
X0161035Y0126000D01*
X0160894Y0126001D01*
X0160754Y0126006D01*
X0160613Y0126015D01*
X0160473Y0126028D01*
X0160333Y0126045D01*
X0160193Y0126065D01*
X0160055Y0126090D01*
X0159917Y0126119D01*
X0159780Y0126151D01*
X0159644Y0126187D01*
X0159509Y0126228D01*
X0159375Y0126272D01*
X0159242Y0126319D01*
X0159111Y0126371D01*
X0158981Y0126426D01*
X0158853Y0126484D01*
X0158727Y0126547D01*
X0158602Y0126612D01*
X0158480Y0126682D01*
X0158359Y0126754D01*
X0158240Y0126830D01*
X0158124Y0126910D01*
X0158010Y0126993D01*
X0157898Y0127078D01*
X0157789Y0127167D01*
X0157682Y0127259D01*
X0157578Y0127354D01*
X0157477Y0127452D01*
X0157378Y0127553D01*
X0157283Y0127656D01*
X0157190Y0127762D01*
X0157100Y0127871D01*
X0157014Y0127982D01*
X0156930Y0128095D01*
X0156850Y0128211D01*
X0156773Y0128329D01*
X0156700Y0128449D01*
X0156629Y0128572D01*
X0156563Y0128696D01*
X0156500Y0128822D01*
X0156440Y0128949D01*
X0156384Y0129078D01*
X0156332Y0129209D01*
X0156283Y0129341D01*
X0156238Y0129475D01*
X0156197Y0129610D01*
X0156160Y0129746D01*
X0156126Y0129882D01*
X0156097Y0130020D01*
X0156071Y0130159D01*
X0156050Y0130298D01*
X0156032Y0130438D01*
X0156018Y0130578D01*
X0156008Y0130718D01*
X0156002Y0130859D01*
X0156000Y0131000D01*
X0146000Y0145000D02*
X0145846Y0145002D01*
X0145692Y0145008D01*
X0145538Y0145018D01*
X0145384Y0145032D01*
X0145231Y0145049D01*
X0145079Y0145071D01*
X0144927Y0145097D01*
X0144775Y0145126D01*
X0144625Y0145160D01*
X0144475Y0145197D01*
X0144327Y0145238D01*
X0144179Y0145283D01*
X0144033Y0145332D01*
X0143888Y0145384D01*
X0143745Y0145440D01*
X0143602Y0145500D01*
X0143462Y0145563D01*
X0143323Y0145630D01*
X0143186Y0145701D01*
X0143051Y0145775D01*
X0142918Y0145852D01*
X0142786Y0145933D01*
X0142657Y0146017D01*
X0142530Y0146105D01*
X0142406Y0146196D01*
X0142284Y0146289D01*
X0142164Y0146387D01*
X0142047Y0146487D01*
X0141932Y0146590D01*
X0141820Y0146696D01*
X0141711Y0146804D01*
X0141605Y0146916D01*
X0141501Y0147030D01*
X0141401Y0147147D01*
X0141303Y0147266D01*
X0141209Y0147388D01*
X0141118Y0147513D01*
X0146000Y0157000D02*
X0146152Y0156998D01*
X0146303Y0156992D01*
X0146454Y0156983D01*
X0146606Y0156969D01*
X0146756Y0156952D01*
X0146906Y0156931D01*
X0147056Y0156906D01*
X0147205Y0156878D01*
X0147353Y0156845D01*
X0147500Y0156809D01*
X0147647Y0156770D01*
X0147792Y0156726D01*
X0147936Y0156679D01*
X0148079Y0156628D01*
X0148220Y0156574D01*
X0148361Y0156516D01*
X0148499Y0156455D01*
X0148636Y0156390D01*
X0148772Y0156321D01*
X0148905Y0156250D01*
X0149037Y0156175D01*
X0149167Y0156096D01*
X0149294Y0156015D01*
X0149420Y0155930D01*
X0149544Y0155842D01*
X0149665Y0155751D01*
X0149784Y0155657D01*
X0149900Y0155559D01*
X0150014Y0155459D01*
X0150126Y0155357D01*
X0150234Y0155251D01*
X0150340Y0155143D01*
X0150444Y0155032D01*
X0150544Y0154918D01*
X0150642Y0154802D01*
X0150736Y0154683D01*
X0146000Y0157000D02*
X0145848Y0156998D01*
X0145697Y0156992D01*
X0145546Y0156983D01*
X0145394Y0156969D01*
X0145244Y0156952D01*
X0145094Y0156931D01*
X0144944Y0156906D01*
X0144795Y0156878D01*
X0144647Y0156845D01*
X0144500Y0156809D01*
X0144353Y0156770D01*
X0144208Y0156726D01*
X0144064Y0156679D01*
X0143921Y0156628D01*
X0143780Y0156574D01*
X0143639Y0156516D01*
X0143501Y0156455D01*
X0143364Y0156390D01*
X0143228Y0156321D01*
X0143095Y0156250D01*
X0142963Y0156175D01*
X0142833Y0156096D01*
X0142706Y0156015D01*
X0142580Y0155930D01*
X0142456Y0155842D01*
X0142335Y0155751D01*
X0142216Y0155657D01*
X0142100Y0155559D01*
X0141986Y0155459D01*
X0141874Y0155357D01*
X0141766Y0155251D01*
X0141660Y0155143D01*
X0141556Y0155032D01*
X0141456Y0154918D01*
X0141358Y0154802D01*
X0141264Y0154683D01*
X0146000Y0145000D02*
X0146150Y0145002D01*
X0146301Y0145008D01*
X0146451Y0145017D01*
X0146600Y0145030D01*
X0146750Y0145047D01*
X0146899Y0145068D01*
X0147047Y0145092D01*
X0147195Y0145120D01*
X0147342Y0145152D01*
X0147488Y0145187D01*
X0147633Y0145227D01*
X0147777Y0145269D01*
X0147920Y0145316D01*
X0148062Y0145366D01*
X0148203Y0145419D01*
X0148342Y0145476D01*
X0148480Y0145536D01*
X0148616Y0145600D01*
X0148750Y0145667D01*
X0148883Y0145738D01*
X0149014Y0145812D01*
X0149143Y0145889D01*
X0149270Y0145970D01*
X0149395Y0146053D01*
X0149518Y0146140D01*
X0149639Y0146229D01*
X0149757Y0146322D01*
X0149873Y0146418D01*
X0149987Y0146516D01*
X0150098Y0146617D01*
X0150207Y0146722D01*
X0150312Y0146828D01*
X0150416Y0146938D01*
X0150516Y0147050D01*
X0150614Y0147164D01*
X0150708Y0147281D01*
X0150800Y0147400D01*
X0096000Y0126000D02*
X0096002Y0126141D01*
X0096008Y0126282D01*
X0096018Y0126422D01*
X0096032Y0126562D01*
X0096050Y0126702D01*
X0096071Y0126841D01*
X0096097Y0126980D01*
X0096126Y0127118D01*
X0096160Y0127254D01*
X0096197Y0127390D01*
X0096238Y0127525D01*
X0096283Y0127659D01*
X0096332Y0127791D01*
X0096384Y0127922D01*
X0096440Y0128051D01*
X0096500Y0128178D01*
X0096563Y0128304D01*
X0096629Y0128428D01*
X0096700Y0128551D01*
X0096773Y0128671D01*
X0096850Y0128789D01*
X0096930Y0128905D01*
X0097014Y0129018D01*
X0097100Y0129129D01*
X0097190Y0129238D01*
X0097283Y0129344D01*
X0097378Y0129447D01*
X0097477Y0129548D01*
X0097578Y0129646D01*
X0097682Y0129741D01*
X0097789Y0129833D01*
X0097898Y0129922D01*
X0098010Y0130007D01*
X0098124Y0130090D01*
X0098240Y0130170D01*
X0098359Y0130246D01*
X0098480Y0130318D01*
X0098602Y0130388D01*
X0098727Y0130453D01*
X0098853Y0130516D01*
X0098981Y0130574D01*
X0099111Y0130629D01*
X0099242Y0130681D01*
X0099375Y0130728D01*
X0099509Y0130772D01*
X0099644Y0130813D01*
X0099780Y0130849D01*
X0099917Y0130881D01*
X0100055Y0130910D01*
X0100193Y0130935D01*
X0100333Y0130955D01*
X0100473Y0130972D01*
X0100613Y0130985D01*
X0100754Y0130994D01*
X0100894Y0130999D01*
X0101035Y0131000D01*
X0101176Y0130997D01*
X0101317Y0130990D01*
X0101457Y0130979D01*
X0101597Y0130964D01*
X0101737Y0130945D01*
X0101876Y0130923D01*
X0102014Y0130896D01*
X0102152Y0130866D01*
X0102288Y0130831D01*
X0102424Y0130793D01*
X0102558Y0130751D01*
X0102692Y0130705D01*
X0102824Y0130656D01*
X0102954Y0130602D01*
X0103083Y0130545D01*
X0103210Y0130485D01*
X0103336Y0130421D01*
X0103459Y0130353D01*
X0103581Y0130282D01*
X0103701Y0130208D01*
X0103818Y0130130D01*
X0103933Y0130049D01*
X0104046Y0129965D01*
X0104157Y0129878D01*
X0104265Y0129787D01*
X0104370Y0129694D01*
X0104473Y0129597D01*
X0104573Y0129498D01*
X0104670Y0129396D01*
X0104764Y0129291D01*
X0104855Y0129184D01*
X0104943Y0129074D01*
X0105028Y0128962D01*
X0105110Y0128847D01*
X0105189Y0128730D01*
X0105264Y0128611D01*
X0105336Y0128490D01*
X0105404Y0128367D01*
X0105469Y0128242D01*
X0105531Y0128115D01*
X0105588Y0127986D01*
X0105643Y0127856D01*
X0105693Y0127725D01*
X0105740Y0127592D01*
X0105783Y0127458D01*
X0105822Y0127322D01*
X0105857Y0127186D01*
X0105889Y0127049D01*
X0105916Y0126911D01*
X0105940Y0126772D01*
X0105960Y0126632D01*
X0105976Y0126492D01*
X0105988Y0126352D01*
X0105996Y0126211D01*
X0106000Y0126070D01*
X0106000Y0125930D01*
X0105996Y0125789D01*
X0105988Y0125648D01*
X0105976Y0125508D01*
X0105960Y0125368D01*
X0105940Y0125228D01*
X0105916Y0125089D01*
X0105889Y0124951D01*
X0105857Y0124814D01*
X0105822Y0124678D01*
X0105783Y0124542D01*
X0105740Y0124408D01*
X0105693Y0124275D01*
X0105643Y0124144D01*
X0105588Y0124014D01*
X0105531Y0123885D01*
X0105469Y0123758D01*
X0105404Y0123633D01*
X0105336Y0123510D01*
X0105264Y0123389D01*
X0105189Y0123270D01*
X0105110Y0123153D01*
X0105028Y0123038D01*
X0104943Y0122926D01*
X0104855Y0122816D01*
X0104764Y0122709D01*
X0104670Y0122604D01*
X0104573Y0122502D01*
X0104473Y0122403D01*
X0104370Y0122306D01*
X0104265Y0122213D01*
X0104157Y0122122D01*
X0104046Y0122035D01*
X0103933Y0121951D01*
X0103818Y0121870D01*
X0103701Y0121792D01*
X0103581Y0121718D01*
X0103459Y0121647D01*
X0103336Y0121579D01*
X0103210Y0121515D01*
X0103083Y0121455D01*
X0102954Y0121398D01*
X0102824Y0121344D01*
X0102692Y0121295D01*
X0102558Y0121249D01*
X0102424Y0121207D01*
X0102288Y0121169D01*
X0102152Y0121134D01*
X0102014Y0121104D01*
X0101876Y0121077D01*
X0101737Y0121055D01*
X0101597Y0121036D01*
X0101457Y0121021D01*
X0101317Y0121010D01*
X0101176Y0121003D01*
X0101035Y0121000D01*
X0100894Y0121001D01*
X0100754Y0121006D01*
X0100613Y0121015D01*
X0100473Y0121028D01*
X0100333Y0121045D01*
X0100193Y0121065D01*
X0100055Y0121090D01*
X0099917Y0121119D01*
X0099780Y0121151D01*
X0099644Y0121187D01*
X0099509Y0121228D01*
X0099375Y0121272D01*
X0099242Y0121319D01*
X0099111Y0121371D01*
X0098981Y0121426D01*
X0098853Y0121484D01*
X0098727Y0121547D01*
X0098602Y0121612D01*
X0098480Y0121682D01*
X0098359Y0121754D01*
X0098240Y0121830D01*
X0098124Y0121910D01*
X0098010Y0121993D01*
X0097898Y0122078D01*
X0097789Y0122167D01*
X0097682Y0122259D01*
X0097578Y0122354D01*
X0097477Y0122452D01*
X0097378Y0122553D01*
X0097283Y0122656D01*
X0097190Y0122762D01*
X0097100Y0122871D01*
X0097014Y0122982D01*
X0096930Y0123095D01*
X0096850Y0123211D01*
X0096773Y0123329D01*
X0096700Y0123449D01*
X0096629Y0123572D01*
X0096563Y0123696D01*
X0096500Y0123822D01*
X0096440Y0123949D01*
X0096384Y0124078D01*
X0096332Y0124209D01*
X0096283Y0124341D01*
X0096238Y0124475D01*
X0096197Y0124610D01*
X0096160Y0124746D01*
X0096126Y0124882D01*
X0096097Y0125020D01*
X0096071Y0125159D01*
X0096050Y0125298D01*
X0096032Y0125438D01*
X0096018Y0125578D01*
X0096008Y0125718D01*
X0096002Y0125859D01*
X0096000Y0126000D01*
X0081000Y0126000D02*
X0081002Y0126141D01*
X0081008Y0126282D01*
X0081018Y0126422D01*
X0081032Y0126562D01*
X0081050Y0126702D01*
X0081071Y0126841D01*
X0081097Y0126980D01*
X0081126Y0127118D01*
X0081160Y0127254D01*
X0081197Y0127390D01*
X0081238Y0127525D01*
X0081283Y0127659D01*
X0081332Y0127791D01*
X0081384Y0127922D01*
X0081440Y0128051D01*
X0081500Y0128178D01*
X0081563Y0128304D01*
X0081629Y0128428D01*
X0081700Y0128551D01*
X0081773Y0128671D01*
X0081850Y0128789D01*
X0081930Y0128905D01*
X0082014Y0129018D01*
X0082100Y0129129D01*
X0082190Y0129238D01*
X0082283Y0129344D01*
X0082378Y0129447D01*
X0082477Y0129548D01*
X0082578Y0129646D01*
X0082682Y0129741D01*
X0082789Y0129833D01*
X0082898Y0129922D01*
X0083010Y0130007D01*
X0083124Y0130090D01*
X0083240Y0130170D01*
X0083359Y0130246D01*
X0083480Y0130318D01*
X0083602Y0130388D01*
X0083727Y0130453D01*
X0083853Y0130516D01*
X0083981Y0130574D01*
X0084111Y0130629D01*
X0084242Y0130681D01*
X0084375Y0130728D01*
X0084509Y0130772D01*
X0084644Y0130813D01*
X0084780Y0130849D01*
X0084917Y0130881D01*
X0085055Y0130910D01*
X0085193Y0130935D01*
X0085333Y0130955D01*
X0085473Y0130972D01*
X0085613Y0130985D01*
X0085754Y0130994D01*
X0085894Y0130999D01*
X0086035Y0131000D01*
X0086176Y0130997D01*
X0086317Y0130990D01*
X0086457Y0130979D01*
X0086597Y0130964D01*
X0086737Y0130945D01*
X0086876Y0130923D01*
X0087014Y0130896D01*
X0087152Y0130866D01*
X0087288Y0130831D01*
X0087424Y0130793D01*
X0087558Y0130751D01*
X0087692Y0130705D01*
X0087824Y0130656D01*
X0087954Y0130602D01*
X0088083Y0130545D01*
X0088210Y0130485D01*
X0088336Y0130421D01*
X0088459Y0130353D01*
X0088581Y0130282D01*
X0088701Y0130208D01*
X0088818Y0130130D01*
X0088933Y0130049D01*
X0089046Y0129965D01*
X0089157Y0129878D01*
X0089265Y0129787D01*
X0089370Y0129694D01*
X0089473Y0129597D01*
X0089573Y0129498D01*
X0089670Y0129396D01*
X0089764Y0129291D01*
X0089855Y0129184D01*
X0089943Y0129074D01*
X0090028Y0128962D01*
X0090110Y0128847D01*
X0090189Y0128730D01*
X0090264Y0128611D01*
X0090336Y0128490D01*
X0090404Y0128367D01*
X0090469Y0128242D01*
X0090531Y0128115D01*
X0090588Y0127986D01*
X0090643Y0127856D01*
X0090693Y0127725D01*
X0090740Y0127592D01*
X0090783Y0127458D01*
X0090822Y0127322D01*
X0090857Y0127186D01*
X0090889Y0127049D01*
X0090916Y0126911D01*
X0090940Y0126772D01*
X0090960Y0126632D01*
X0090976Y0126492D01*
X0090988Y0126352D01*
X0090996Y0126211D01*
X0091000Y0126070D01*
X0091000Y0125930D01*
X0090996Y0125789D01*
X0090988Y0125648D01*
X0090976Y0125508D01*
X0090960Y0125368D01*
X0090940Y0125228D01*
X0090916Y0125089D01*
X0090889Y0124951D01*
X0090857Y0124814D01*
X0090822Y0124678D01*
X0090783Y0124542D01*
X0090740Y0124408D01*
X0090693Y0124275D01*
X0090643Y0124144D01*
X0090588Y0124014D01*
X0090531Y0123885D01*
X0090469Y0123758D01*
X0090404Y0123633D01*
X0090336Y0123510D01*
X0090264Y0123389D01*
X0090189Y0123270D01*
X0090110Y0123153D01*
X0090028Y0123038D01*
X0089943Y0122926D01*
X0089855Y0122816D01*
X0089764Y0122709D01*
X0089670Y0122604D01*
X0089573Y0122502D01*
X0089473Y0122403D01*
X0089370Y0122306D01*
X0089265Y0122213D01*
X0089157Y0122122D01*
X0089046Y0122035D01*
X0088933Y0121951D01*
X0088818Y0121870D01*
X0088701Y0121792D01*
X0088581Y0121718D01*
X0088459Y0121647D01*
X0088336Y0121579D01*
X0088210Y0121515D01*
X0088083Y0121455D01*
X0087954Y0121398D01*
X0087824Y0121344D01*
X0087692Y0121295D01*
X0087558Y0121249D01*
X0087424Y0121207D01*
X0087288Y0121169D01*
X0087152Y0121134D01*
X0087014Y0121104D01*
X0086876Y0121077D01*
X0086737Y0121055D01*
X0086597Y0121036D01*
X0086457Y0121021D01*
X0086317Y0121010D01*
X0086176Y0121003D01*
X0086035Y0121000D01*
X0085894Y0121001D01*
X0085754Y0121006D01*
X0085613Y0121015D01*
X0085473Y0121028D01*
X0085333Y0121045D01*
X0085193Y0121065D01*
X0085055Y0121090D01*
X0084917Y0121119D01*
X0084780Y0121151D01*
X0084644Y0121187D01*
X0084509Y0121228D01*
X0084375Y0121272D01*
X0084242Y0121319D01*
X0084111Y0121371D01*
X0083981Y0121426D01*
X0083853Y0121484D01*
X0083727Y0121547D01*
X0083602Y0121612D01*
X0083480Y0121682D01*
X0083359Y0121754D01*
X0083240Y0121830D01*
X0083124Y0121910D01*
X0083010Y0121993D01*
X0082898Y0122078D01*
X0082789Y0122167D01*
X0082682Y0122259D01*
X0082578Y0122354D01*
X0082477Y0122452D01*
X0082378Y0122553D01*
X0082283Y0122656D01*
X0082190Y0122762D01*
X0082100Y0122871D01*
X0082014Y0122982D01*
X0081930Y0123095D01*
X0081850Y0123211D01*
X0081773Y0123329D01*
X0081700Y0123449D01*
X0081629Y0123572D01*
X0081563Y0123696D01*
X0081500Y0123822D01*
X0081440Y0123949D01*
X0081384Y0124078D01*
X0081332Y0124209D01*
X0081283Y0124341D01*
X0081238Y0124475D01*
X0081197Y0124610D01*
X0081160Y0124746D01*
X0081126Y0124882D01*
X0081097Y0125020D01*
X0081071Y0125159D01*
X0081050Y0125298D01*
X0081032Y0125438D01*
X0081018Y0125578D01*
X0081008Y0125718D01*
X0081002Y0125859D01*
X0081000Y0126000D01*
X0096000Y0096000D02*
X0096002Y0096141D01*
X0096008Y0096282D01*
X0096018Y0096422D01*
X0096032Y0096562D01*
X0096050Y0096702D01*
X0096071Y0096841D01*
X0096097Y0096980D01*
X0096126Y0097118D01*
X0096160Y0097254D01*
X0096197Y0097390D01*
X0096238Y0097525D01*
X0096283Y0097659D01*
X0096332Y0097791D01*
X0096384Y0097922D01*
X0096440Y0098051D01*
X0096500Y0098178D01*
X0096563Y0098304D01*
X0096629Y0098428D01*
X0096700Y0098551D01*
X0096773Y0098671D01*
X0096850Y0098789D01*
X0096930Y0098905D01*
X0097014Y0099018D01*
X0097100Y0099129D01*
X0097190Y0099238D01*
X0097283Y0099344D01*
X0097378Y0099447D01*
X0097477Y0099548D01*
X0097578Y0099646D01*
X0097682Y0099741D01*
X0097789Y0099833D01*
X0097898Y0099922D01*
X0098010Y0100007D01*
X0098124Y0100090D01*
X0098240Y0100170D01*
X0098359Y0100246D01*
X0098480Y0100318D01*
X0098602Y0100388D01*
X0098727Y0100453D01*
X0098853Y0100516D01*
X0098981Y0100574D01*
X0099111Y0100629D01*
X0099242Y0100681D01*
X0099375Y0100728D01*
X0099509Y0100772D01*
X0099644Y0100813D01*
X0099780Y0100849D01*
X0099917Y0100881D01*
X0100055Y0100910D01*
X0100193Y0100935D01*
X0100333Y0100955D01*
X0100473Y0100972D01*
X0100613Y0100985D01*
X0100754Y0100994D01*
X0100894Y0100999D01*
X0101035Y0101000D01*
X0101176Y0100997D01*
X0101317Y0100990D01*
X0101457Y0100979D01*
X0101597Y0100964D01*
X0101737Y0100945D01*
X0101876Y0100923D01*
X0102014Y0100896D01*
X0102152Y0100866D01*
X0102288Y0100831D01*
X0102424Y0100793D01*
X0102558Y0100751D01*
X0102692Y0100705D01*
X0102824Y0100656D01*
X0102954Y0100602D01*
X0103083Y0100545D01*
X0103210Y0100485D01*
X0103336Y0100421D01*
X0103459Y0100353D01*
X0103581Y0100282D01*
X0103701Y0100208D01*
X0103818Y0100130D01*
X0103933Y0100049D01*
X0104046Y0099965D01*
X0104157Y0099878D01*
X0104265Y0099787D01*
X0104370Y0099694D01*
X0104473Y0099597D01*
X0104573Y0099498D01*
X0104670Y0099396D01*
X0104764Y0099291D01*
X0104855Y0099184D01*
X0104943Y0099074D01*
X0105028Y0098962D01*
X0105110Y0098847D01*
X0105189Y0098730D01*
X0105264Y0098611D01*
X0105336Y0098490D01*
X0105404Y0098367D01*
X0105469Y0098242D01*
X0105531Y0098115D01*
X0105588Y0097986D01*
X0105643Y0097856D01*
X0105693Y0097725D01*
X0105740Y0097592D01*
X0105783Y0097458D01*
X0105822Y0097322D01*
X0105857Y0097186D01*
X0105889Y0097049D01*
X0105916Y0096911D01*
X0105940Y0096772D01*
X0105960Y0096632D01*
X0105976Y0096492D01*
X0105988Y0096352D01*
X0105996Y0096211D01*
X0106000Y0096070D01*
X0106000Y0095930D01*
X0105996Y0095789D01*
X0105988Y0095648D01*
X0105976Y0095508D01*
X0105960Y0095368D01*
X0105940Y0095228D01*
X0105916Y0095089D01*
X0105889Y0094951D01*
X0105857Y0094814D01*
X0105822Y0094678D01*
X0105783Y0094542D01*
X0105740Y0094408D01*
X0105693Y0094275D01*
X0105643Y0094144D01*
X0105588Y0094014D01*
X0105531Y0093885D01*
X0105469Y0093758D01*
X0105404Y0093633D01*
X0105336Y0093510D01*
X0105264Y0093389D01*
X0105189Y0093270D01*
X0105110Y0093153D01*
X0105028Y0093038D01*
X0104943Y0092926D01*
X0104855Y0092816D01*
X0104764Y0092709D01*
X0104670Y0092604D01*
X0104573Y0092502D01*
X0104473Y0092403D01*
X0104370Y0092306D01*
X0104265Y0092213D01*
X0104157Y0092122D01*
X0104046Y0092035D01*
X0103933Y0091951D01*
X0103818Y0091870D01*
X0103701Y0091792D01*
X0103581Y0091718D01*
X0103459Y0091647D01*
X0103336Y0091579D01*
X0103210Y0091515D01*
X0103083Y0091455D01*
X0102954Y0091398D01*
X0102824Y0091344D01*
X0102692Y0091295D01*
X0102558Y0091249D01*
X0102424Y0091207D01*
X0102288Y0091169D01*
X0102152Y0091134D01*
X0102014Y0091104D01*
X0101876Y0091077D01*
X0101737Y0091055D01*
X0101597Y0091036D01*
X0101457Y0091021D01*
X0101317Y0091010D01*
X0101176Y0091003D01*
X0101035Y0091000D01*
X0100894Y0091001D01*
X0100754Y0091006D01*
X0100613Y0091015D01*
X0100473Y0091028D01*
X0100333Y0091045D01*
X0100193Y0091065D01*
X0100055Y0091090D01*
X0099917Y0091119D01*
X0099780Y0091151D01*
X0099644Y0091187D01*
X0099509Y0091228D01*
X0099375Y0091272D01*
X0099242Y0091319D01*
X0099111Y0091371D01*
X0098981Y0091426D01*
X0098853Y0091484D01*
X0098727Y0091547D01*
X0098602Y0091612D01*
X0098480Y0091682D01*
X0098359Y0091754D01*
X0098240Y0091830D01*
X0098124Y0091910D01*
X0098010Y0091993D01*
X0097898Y0092078D01*
X0097789Y0092167D01*
X0097682Y0092259D01*
X0097578Y0092354D01*
X0097477Y0092452D01*
X0097378Y0092553D01*
X0097283Y0092656D01*
X0097190Y0092762D01*
X0097100Y0092871D01*
X0097014Y0092982D01*
X0096930Y0093095D01*
X0096850Y0093211D01*
X0096773Y0093329D01*
X0096700Y0093449D01*
X0096629Y0093572D01*
X0096563Y0093696D01*
X0096500Y0093822D01*
X0096440Y0093949D01*
X0096384Y0094078D01*
X0096332Y0094209D01*
X0096283Y0094341D01*
X0096238Y0094475D01*
X0096197Y0094610D01*
X0096160Y0094746D01*
X0096126Y0094882D01*
X0096097Y0095020D01*
X0096071Y0095159D01*
X0096050Y0095298D01*
X0096032Y0095438D01*
X0096018Y0095578D01*
X0096008Y0095718D01*
X0096002Y0095859D01*
X0096000Y0096000D01*
X0096000Y0076000D02*
X0096002Y0076141D01*
X0096008Y0076282D01*
X0096018Y0076422D01*
X0096032Y0076562D01*
X0096050Y0076702D01*
X0096071Y0076841D01*
X0096097Y0076980D01*
X0096126Y0077118D01*
X0096160Y0077254D01*
X0096197Y0077390D01*
X0096238Y0077525D01*
X0096283Y0077659D01*
X0096332Y0077791D01*
X0096384Y0077922D01*
X0096440Y0078051D01*
X0096500Y0078178D01*
X0096563Y0078304D01*
X0096629Y0078428D01*
X0096700Y0078551D01*
X0096773Y0078671D01*
X0096850Y0078789D01*
X0096930Y0078905D01*
X0097014Y0079018D01*
X0097100Y0079129D01*
X0097190Y0079238D01*
X0097283Y0079344D01*
X0097378Y0079447D01*
X0097477Y0079548D01*
X0097578Y0079646D01*
X0097682Y0079741D01*
X0097789Y0079833D01*
X0097898Y0079922D01*
X0098010Y0080007D01*
X0098124Y0080090D01*
X0098240Y0080170D01*
X0098359Y0080246D01*
X0098480Y0080318D01*
X0098602Y0080388D01*
X0098727Y0080453D01*
X0098853Y0080516D01*
X0098981Y0080574D01*
X0099111Y0080629D01*
X0099242Y0080681D01*
X0099375Y0080728D01*
X0099509Y0080772D01*
X0099644Y0080813D01*
X0099780Y0080849D01*
X0099917Y0080881D01*
X0100055Y0080910D01*
X0100193Y0080935D01*
X0100333Y0080955D01*
X0100473Y0080972D01*
X0100613Y0080985D01*
X0100754Y0080994D01*
X0100894Y0080999D01*
X0101035Y0081000D01*
X0101176Y0080997D01*
X0101317Y0080990D01*
X0101457Y0080979D01*
X0101597Y0080964D01*
X0101737Y0080945D01*
X0101876Y0080923D01*
X0102014Y0080896D01*
X0102152Y0080866D01*
X0102288Y0080831D01*
X0102424Y0080793D01*
X0102558Y0080751D01*
X0102692Y0080705D01*
X0102824Y0080656D01*
X0102954Y0080602D01*
X0103083Y0080545D01*
X0103210Y0080485D01*
X0103336Y0080421D01*
X0103459Y0080353D01*
X0103581Y0080282D01*
X0103701Y0080208D01*
X0103818Y0080130D01*
X0103933Y0080049D01*
X0104046Y0079965D01*
X0104157Y0079878D01*
X0104265Y0079787D01*
X0104370Y0079694D01*
X0104473Y0079597D01*
X0104573Y0079498D01*
X0104670Y0079396D01*
X0104764Y0079291D01*
X0104855Y0079184D01*
X0104943Y0079074D01*
X0105028Y0078962D01*
X0105110Y0078847D01*
X0105189Y0078730D01*
X0105264Y0078611D01*
X0105336Y0078490D01*
X0105404Y0078367D01*
X0105469Y0078242D01*
X0105531Y0078115D01*
X0105588Y0077986D01*
X0105643Y0077856D01*
X0105693Y0077725D01*
X0105740Y0077592D01*
X0105783Y0077458D01*
X0105822Y0077322D01*
X0105857Y0077186D01*
X0105889Y0077049D01*
X0105916Y0076911D01*
X0105940Y0076772D01*
X0105960Y0076632D01*
X0105976Y0076492D01*
X0105988Y0076352D01*
X0105996Y0076211D01*
X0106000Y0076070D01*
X0106000Y0075930D01*
X0105996Y0075789D01*
X0105988Y0075648D01*
X0105976Y0075508D01*
X0105960Y0075368D01*
X0105940Y0075228D01*
X0105916Y0075089D01*
X0105889Y0074951D01*
X0105857Y0074814D01*
X0105822Y0074678D01*
X0105783Y0074542D01*
X0105740Y0074408D01*
X0105693Y0074275D01*
X0105643Y0074144D01*
X0105588Y0074014D01*
X0105531Y0073885D01*
X0105469Y0073758D01*
X0105404Y0073633D01*
X0105336Y0073510D01*
X0105264Y0073389D01*
X0105189Y0073270D01*
X0105110Y0073153D01*
X0105028Y0073038D01*
X0104943Y0072926D01*
X0104855Y0072816D01*
X0104764Y0072709D01*
X0104670Y0072604D01*
X0104573Y0072502D01*
X0104473Y0072403D01*
X0104370Y0072306D01*
X0104265Y0072213D01*
X0104157Y0072122D01*
X0104046Y0072035D01*
X0103933Y0071951D01*
X0103818Y0071870D01*
X0103701Y0071792D01*
X0103581Y0071718D01*
X0103459Y0071647D01*
X0103336Y0071579D01*
X0103210Y0071515D01*
X0103083Y0071455D01*
X0102954Y0071398D01*
X0102824Y0071344D01*
X0102692Y0071295D01*
X0102558Y0071249D01*
X0102424Y0071207D01*
X0102288Y0071169D01*
X0102152Y0071134D01*
X0102014Y0071104D01*
X0101876Y0071077D01*
X0101737Y0071055D01*
X0101597Y0071036D01*
X0101457Y0071021D01*
X0101317Y0071010D01*
X0101176Y0071003D01*
X0101035Y0071000D01*
X0100894Y0071001D01*
X0100754Y0071006D01*
X0100613Y0071015D01*
X0100473Y0071028D01*
X0100333Y0071045D01*
X0100193Y0071065D01*
X0100055Y0071090D01*
X0099917Y0071119D01*
X0099780Y0071151D01*
X0099644Y0071187D01*
X0099509Y0071228D01*
X0099375Y0071272D01*
X0099242Y0071319D01*
X0099111Y0071371D01*
X0098981Y0071426D01*
X0098853Y0071484D01*
X0098727Y0071547D01*
X0098602Y0071612D01*
X0098480Y0071682D01*
X0098359Y0071754D01*
X0098240Y0071830D01*
X0098124Y0071910D01*
X0098010Y0071993D01*
X0097898Y0072078D01*
X0097789Y0072167D01*
X0097682Y0072259D01*
X0097578Y0072354D01*
X0097477Y0072452D01*
X0097378Y0072553D01*
X0097283Y0072656D01*
X0097190Y0072762D01*
X0097100Y0072871D01*
X0097014Y0072982D01*
X0096930Y0073095D01*
X0096850Y0073211D01*
X0096773Y0073329D01*
X0096700Y0073449D01*
X0096629Y0073572D01*
X0096563Y0073696D01*
X0096500Y0073822D01*
X0096440Y0073949D01*
X0096384Y0074078D01*
X0096332Y0074209D01*
X0096283Y0074341D01*
X0096238Y0074475D01*
X0096197Y0074610D01*
X0096160Y0074746D01*
X0096126Y0074882D01*
X0096097Y0075020D01*
X0096071Y0075159D01*
X0096050Y0075298D01*
X0096032Y0075438D01*
X0096018Y0075578D01*
X0096008Y0075718D01*
X0096002Y0075859D01*
X0096000Y0076000D01*
X0069500Y0048000D02*
X0066000Y0048000D01*
X0056000Y0048000D01*
X0052500Y0048000D01*
X0049000Y0040000D02*
X0049000Y0039000D01*
X0048000Y0039000D01*
X0048000Y0033000D01*
X0049000Y0033000D01*
X0049000Y0032000D01*
X0052500Y0024000D02*
X0056000Y0024000D01*
X0065500Y0024000D01*
X0069500Y0024000D01*
X0073000Y0032000D02*
X0073000Y0033000D01*
X0074000Y0033000D01*
X0074000Y0039000D01*
X0073000Y0039000D01*
X0073000Y0040000D01*
X0060000Y0036000D02*
X0060002Y0036063D01*
X0060008Y0036125D01*
X0060018Y0036187D01*
X0060031Y0036249D01*
X0060049Y0036309D01*
X0060070Y0036368D01*
X0060095Y0036426D01*
X0060124Y0036482D01*
X0060156Y0036536D01*
X0060191Y0036588D01*
X0060229Y0036637D01*
X0060271Y0036685D01*
X0060315Y0036729D01*
X0060363Y0036771D01*
X0060412Y0036809D01*
X0060464Y0036844D01*
X0060518Y0036876D01*
X0060574Y0036905D01*
X0060632Y0036930D01*
X0060691Y0036951D01*
X0060751Y0036969D01*
X0060813Y0036982D01*
X0060875Y0036992D01*
X0060937Y0036998D01*
X0061000Y0037000D01*
X0061063Y0036998D01*
X0061125Y0036992D01*
X0061187Y0036982D01*
X0061249Y0036969D01*
X0061309Y0036951D01*
X0061368Y0036930D01*
X0061426Y0036905D01*
X0061482Y0036876D01*
X0061536Y0036844D01*
X0061588Y0036809D01*
X0061637Y0036771D01*
X0061685Y0036729D01*
X0061729Y0036685D01*
X0061771Y0036637D01*
X0061809Y0036588D01*
X0061844Y0036536D01*
X0061876Y0036482D01*
X0061905Y0036426D01*
X0061930Y0036368D01*
X0061951Y0036309D01*
X0061969Y0036249D01*
X0061982Y0036187D01*
X0061992Y0036125D01*
X0061998Y0036063D01*
X0062000Y0036000D01*
X0061998Y0035937D01*
X0061992Y0035875D01*
X0061982Y0035813D01*
X0061969Y0035751D01*
X0061951Y0035691D01*
X0061930Y0035632D01*
X0061905Y0035574D01*
X0061876Y0035518D01*
X0061844Y0035464D01*
X0061809Y0035412D01*
X0061771Y0035363D01*
X0061729Y0035315D01*
X0061685Y0035271D01*
X0061637Y0035229D01*
X0061588Y0035191D01*
X0061536Y0035156D01*
X0061482Y0035124D01*
X0061426Y0035095D01*
X0061368Y0035070D01*
X0061309Y0035049D01*
X0061249Y0035031D01*
X0061187Y0035018D01*
X0061125Y0035008D01*
X0061063Y0035002D01*
X0061000Y0035000D01*
X0060937Y0035002D01*
X0060875Y0035008D01*
X0060813Y0035018D01*
X0060751Y0035031D01*
X0060691Y0035049D01*
X0060632Y0035070D01*
X0060574Y0035095D01*
X0060518Y0035124D01*
X0060464Y0035156D01*
X0060412Y0035191D01*
X0060363Y0035229D01*
X0060315Y0035271D01*
X0060271Y0035315D01*
X0060229Y0035363D01*
X0060191Y0035412D01*
X0060156Y0035464D01*
X0060124Y0035518D01*
X0060095Y0035574D01*
X0060070Y0035632D01*
X0060049Y0035691D01*
X0060031Y0035751D01*
X0060018Y0035813D01*
X0060008Y0035875D01*
X0060002Y0035937D01*
X0060000Y0036000D01*
X0054000Y0036000D02*
X0054002Y0036172D01*
X0054008Y0036343D01*
X0054019Y0036515D01*
X0054034Y0036686D01*
X0054053Y0036857D01*
X0054076Y0037027D01*
X0054103Y0037197D01*
X0054135Y0037366D01*
X0054170Y0037534D01*
X0054210Y0037701D01*
X0054254Y0037867D01*
X0054301Y0038032D01*
X0054353Y0038196D01*
X0054409Y0038358D01*
X0054469Y0038519D01*
X0054533Y0038679D01*
X0054601Y0038837D01*
X0054672Y0038993D01*
X0054747Y0039147D01*
X0054827Y0039300D01*
X0054909Y0039450D01*
X0054996Y0039599D01*
X0055086Y0039745D01*
X0055180Y0039889D01*
X0055277Y0040031D01*
X0055378Y0040170D01*
X0055482Y0040307D01*
X0055589Y0040441D01*
X0055700Y0040572D01*
X0055813Y0040701D01*
X0055930Y0040827D01*
X0056050Y0040950D01*
X0056173Y0041070D01*
X0056299Y0041187D01*
X0056428Y0041300D01*
X0056559Y0041411D01*
X0056693Y0041518D01*
X0056830Y0041622D01*
X0056969Y0041723D01*
X0057111Y0041820D01*
X0057255Y0041914D01*
X0057401Y0042004D01*
X0057550Y0042091D01*
X0057700Y0042173D01*
X0057853Y0042253D01*
X0058007Y0042328D01*
X0058163Y0042399D01*
X0058321Y0042467D01*
X0058481Y0042531D01*
X0058642Y0042591D01*
X0058804Y0042647D01*
X0058968Y0042699D01*
X0059133Y0042746D01*
X0059299Y0042790D01*
X0059466Y0042830D01*
X0059634Y0042865D01*
X0059803Y0042897D01*
X0059973Y0042924D01*
X0060143Y0042947D01*
X0060314Y0042966D01*
X0060485Y0042981D01*
X0060657Y0042992D01*
X0060828Y0042998D01*
X0061000Y0043000D01*
X0061172Y0042998D01*
X0061343Y0042992D01*
X0061515Y0042981D01*
X0061686Y0042966D01*
X0061857Y0042947D01*
X0062027Y0042924D01*
X0062197Y0042897D01*
X0062366Y0042865D01*
X0062534Y0042830D01*
X0062701Y0042790D01*
X0062867Y0042746D01*
X0063032Y0042699D01*
X0063196Y0042647D01*
X0063358Y0042591D01*
X0063519Y0042531D01*
X0063679Y0042467D01*
X0063837Y0042399D01*
X0063993Y0042328D01*
X0064147Y0042253D01*
X0064300Y0042173D01*
X0064450Y0042091D01*
X0064599Y0042004D01*
X0064745Y0041914D01*
X0064889Y0041820D01*
X0065031Y0041723D01*
X0065170Y0041622D01*
X0065307Y0041518D01*
X0065441Y0041411D01*
X0065572Y0041300D01*
X0065701Y0041187D01*
X0065827Y0041070D01*
X0065950Y0040950D01*
X0066070Y0040827D01*
X0066187Y0040701D01*
X0066300Y0040572D01*
X0066411Y0040441D01*
X0066518Y0040307D01*
X0066622Y0040170D01*
X0066723Y0040031D01*
X0066820Y0039889D01*
X0066914Y0039745D01*
X0067004Y0039599D01*
X0067091Y0039450D01*
X0067173Y0039300D01*
X0067253Y0039147D01*
X0067328Y0038993D01*
X0067399Y0038837D01*
X0067467Y0038679D01*
X0067531Y0038519D01*
X0067591Y0038358D01*
X0067647Y0038196D01*
X0067699Y0038032D01*
X0067746Y0037867D01*
X0067790Y0037701D01*
X0067830Y0037534D01*
X0067865Y0037366D01*
X0067897Y0037197D01*
X0067924Y0037027D01*
X0067947Y0036857D01*
X0067966Y0036686D01*
X0067981Y0036515D01*
X0067992Y0036343D01*
X0067998Y0036172D01*
X0068000Y0036000D01*
X0067998Y0035828D01*
X0067992Y0035657D01*
X0067981Y0035485D01*
X0067966Y0035314D01*
X0067947Y0035143D01*
X0067924Y0034973D01*
X0067897Y0034803D01*
X0067865Y0034634D01*
X0067830Y0034466D01*
X0067790Y0034299D01*
X0067746Y0034133D01*
X0067699Y0033968D01*
X0067647Y0033804D01*
X0067591Y0033642D01*
X0067531Y0033481D01*
X0067467Y0033321D01*
X0067399Y0033163D01*
X0067328Y0033007D01*
X0067253Y0032853D01*
X0067173Y0032700D01*
X0067091Y0032550D01*
X0067004Y0032401D01*
X0066914Y0032255D01*
X0066820Y0032111D01*
X0066723Y0031969D01*
X0066622Y0031830D01*
X0066518Y0031693D01*
X0066411Y0031559D01*
X0066300Y0031428D01*
X0066187Y0031299D01*
X0066070Y0031173D01*
X0065950Y0031050D01*
X0065827Y0030930D01*
X0065701Y0030813D01*
X0065572Y0030700D01*
X0065441Y0030589D01*
X0065307Y0030482D01*
X0065170Y0030378D01*
X0065031Y0030277D01*
X0064889Y0030180D01*
X0064745Y0030086D01*
X0064599Y0029996D01*
X0064450Y0029909D01*
X0064300Y0029827D01*
X0064147Y0029747D01*
X0063993Y0029672D01*
X0063837Y0029601D01*
X0063679Y0029533D01*
X0063519Y0029469D01*
X0063358Y0029409D01*
X0063196Y0029353D01*
X0063032Y0029301D01*
X0062867Y0029254D01*
X0062701Y0029210D01*
X0062534Y0029170D01*
X0062366Y0029135D01*
X0062197Y0029103D01*
X0062027Y0029076D01*
X0061857Y0029053D01*
X0061686Y0029034D01*
X0061515Y0029019D01*
X0061343Y0029008D01*
X0061172Y0029002D01*
X0061000Y0029000D01*
X0060828Y0029002D01*
X0060657Y0029008D01*
X0060485Y0029019D01*
X0060314Y0029034D01*
X0060143Y0029053D01*
X0059973Y0029076D01*
X0059803Y0029103D01*
X0059634Y0029135D01*
X0059466Y0029170D01*
X0059299Y0029210D01*
X0059133Y0029254D01*
X0058968Y0029301D01*
X0058804Y0029353D01*
X0058642Y0029409D01*
X0058481Y0029469D01*
X0058321Y0029533D01*
X0058163Y0029601D01*
X0058007Y0029672D01*
X0057853Y0029747D01*
X0057700Y0029827D01*
X0057550Y0029909D01*
X0057401Y0029996D01*
X0057255Y0030086D01*
X0057111Y0030180D01*
X0056969Y0030277D01*
X0056830Y0030378D01*
X0056693Y0030482D01*
X0056559Y0030589D01*
X0056428Y0030700D01*
X0056299Y0030813D01*
X0056173Y0030930D01*
X0056050Y0031050D01*
X0055930Y0031173D01*
X0055813Y0031299D01*
X0055700Y0031428D01*
X0055589Y0031559D01*
X0055482Y0031693D01*
X0055378Y0031830D01*
X0055277Y0031969D01*
X0055180Y0032111D01*
X0055086Y0032255D01*
X0054996Y0032401D01*
X0054909Y0032550D01*
X0054827Y0032700D01*
X0054747Y0032853D01*
X0054672Y0033007D01*
X0054601Y0033163D01*
X0054533Y0033321D01*
X0054469Y0033481D01*
X0054409Y0033642D01*
X0054353Y0033804D01*
X0054301Y0033968D01*
X0054254Y0034133D01*
X0054210Y0034299D01*
X0054170Y0034466D01*
X0054135Y0034634D01*
X0054103Y0034803D01*
X0054076Y0034973D01*
X0054053Y0035143D01*
X0054034Y0035314D01*
X0054019Y0035485D01*
X0054008Y0035657D01*
X0054002Y0035828D01*
X0054000Y0036000D01*
X0086000Y0026000D02*
X0086002Y0026141D01*
X0086008Y0026282D01*
X0086018Y0026422D01*
X0086032Y0026562D01*
X0086050Y0026702D01*
X0086071Y0026841D01*
X0086097Y0026980D01*
X0086126Y0027118D01*
X0086160Y0027254D01*
X0086197Y0027390D01*
X0086238Y0027525D01*
X0086283Y0027659D01*
X0086332Y0027791D01*
X0086384Y0027922D01*
X0086440Y0028051D01*
X0086500Y0028178D01*
X0086563Y0028304D01*
X0086629Y0028428D01*
X0086700Y0028551D01*
X0086773Y0028671D01*
X0086850Y0028789D01*
X0086930Y0028905D01*
X0087014Y0029018D01*
X0087100Y0029129D01*
X0087190Y0029238D01*
X0087283Y0029344D01*
X0087378Y0029447D01*
X0087477Y0029548D01*
X0087578Y0029646D01*
X0087682Y0029741D01*
X0087789Y0029833D01*
X0087898Y0029922D01*
X0088010Y0030007D01*
X0088124Y0030090D01*
X0088240Y0030170D01*
X0088359Y0030246D01*
X0088480Y0030318D01*
X0088602Y0030388D01*
X0088727Y0030453D01*
X0088853Y0030516D01*
X0088981Y0030574D01*
X0089111Y0030629D01*
X0089242Y0030681D01*
X0089375Y0030728D01*
X0089509Y0030772D01*
X0089644Y0030813D01*
X0089780Y0030849D01*
X0089917Y0030881D01*
X0090055Y0030910D01*
X0090193Y0030935D01*
X0090333Y0030955D01*
X0090473Y0030972D01*
X0090613Y0030985D01*
X0090754Y0030994D01*
X0090894Y0030999D01*
X0091035Y0031000D01*
X0091176Y0030997D01*
X0091317Y0030990D01*
X0091457Y0030979D01*
X0091597Y0030964D01*
X0091737Y0030945D01*
X0091876Y0030923D01*
X0092014Y0030896D01*
X0092152Y0030866D01*
X0092288Y0030831D01*
X0092424Y0030793D01*
X0092558Y0030751D01*
X0092692Y0030705D01*
X0092824Y0030656D01*
X0092954Y0030602D01*
X0093083Y0030545D01*
X0093210Y0030485D01*
X0093336Y0030421D01*
X0093459Y0030353D01*
X0093581Y0030282D01*
X0093701Y0030208D01*
X0093818Y0030130D01*
X0093933Y0030049D01*
X0094046Y0029965D01*
X0094157Y0029878D01*
X0094265Y0029787D01*
X0094370Y0029694D01*
X0094473Y0029597D01*
X0094573Y0029498D01*
X0094670Y0029396D01*
X0094764Y0029291D01*
X0094855Y0029184D01*
X0094943Y0029074D01*
X0095028Y0028962D01*
X0095110Y0028847D01*
X0095189Y0028730D01*
X0095264Y0028611D01*
X0095336Y0028490D01*
X0095404Y0028367D01*
X0095469Y0028242D01*
X0095531Y0028115D01*
X0095588Y0027986D01*
X0095643Y0027856D01*
X0095693Y0027725D01*
X0095740Y0027592D01*
X0095783Y0027458D01*
X0095822Y0027322D01*
X0095857Y0027186D01*
X0095889Y0027049D01*
X0095916Y0026911D01*
X0095940Y0026772D01*
X0095960Y0026632D01*
X0095976Y0026492D01*
X0095988Y0026352D01*
X0095996Y0026211D01*
X0096000Y0026070D01*
X0096000Y0025930D01*
X0095996Y0025789D01*
X0095988Y0025648D01*
X0095976Y0025508D01*
X0095960Y0025368D01*
X0095940Y0025228D01*
X0095916Y0025089D01*
X0095889Y0024951D01*
X0095857Y0024814D01*
X0095822Y0024678D01*
X0095783Y0024542D01*
X0095740Y0024408D01*
X0095693Y0024275D01*
X0095643Y0024144D01*
X0095588Y0024014D01*
X0095531Y0023885D01*
X0095469Y0023758D01*
X0095404Y0023633D01*
X0095336Y0023510D01*
X0095264Y0023389D01*
X0095189Y0023270D01*
X0095110Y0023153D01*
X0095028Y0023038D01*
X0094943Y0022926D01*
X0094855Y0022816D01*
X0094764Y0022709D01*
X0094670Y0022604D01*
X0094573Y0022502D01*
X0094473Y0022403D01*
X0094370Y0022306D01*
X0094265Y0022213D01*
X0094157Y0022122D01*
X0094046Y0022035D01*
X0093933Y0021951D01*
X0093818Y0021870D01*
X0093701Y0021792D01*
X0093581Y0021718D01*
X0093459Y0021647D01*
X0093336Y0021579D01*
X0093210Y0021515D01*
X0093083Y0021455D01*
X0092954Y0021398D01*
X0092824Y0021344D01*
X0092692Y0021295D01*
X0092558Y0021249D01*
X0092424Y0021207D01*
X0092288Y0021169D01*
X0092152Y0021134D01*
X0092014Y0021104D01*
X0091876Y0021077D01*
X0091737Y0021055D01*
X0091597Y0021036D01*
X0091457Y0021021D01*
X0091317Y0021010D01*
X0091176Y0021003D01*
X0091035Y0021000D01*
X0090894Y0021001D01*
X0090754Y0021006D01*
X0090613Y0021015D01*
X0090473Y0021028D01*
X0090333Y0021045D01*
X0090193Y0021065D01*
X0090055Y0021090D01*
X0089917Y0021119D01*
X0089780Y0021151D01*
X0089644Y0021187D01*
X0089509Y0021228D01*
X0089375Y0021272D01*
X0089242Y0021319D01*
X0089111Y0021371D01*
X0088981Y0021426D01*
X0088853Y0021484D01*
X0088727Y0021547D01*
X0088602Y0021612D01*
X0088480Y0021682D01*
X0088359Y0021754D01*
X0088240Y0021830D01*
X0088124Y0021910D01*
X0088010Y0021993D01*
X0087898Y0022078D01*
X0087789Y0022167D01*
X0087682Y0022259D01*
X0087578Y0022354D01*
X0087477Y0022452D01*
X0087378Y0022553D01*
X0087283Y0022656D01*
X0087190Y0022762D01*
X0087100Y0022871D01*
X0087014Y0022982D01*
X0086930Y0023095D01*
X0086850Y0023211D01*
X0086773Y0023329D01*
X0086700Y0023449D01*
X0086629Y0023572D01*
X0086563Y0023696D01*
X0086500Y0023822D01*
X0086440Y0023949D01*
X0086384Y0024078D01*
X0086332Y0024209D01*
X0086283Y0024341D01*
X0086238Y0024475D01*
X0086197Y0024610D01*
X0086160Y0024746D01*
X0086126Y0024882D01*
X0086097Y0025020D01*
X0086071Y0025159D01*
X0086050Y0025298D01*
X0086032Y0025438D01*
X0086018Y0025578D01*
X0086008Y0025718D01*
X0086002Y0025859D01*
X0086000Y0026000D01*
D13*
X0096050Y0030250D02*
X0096050Y0034754D01*
X0098302Y0034754D01*
X0099053Y0034003D01*
X0099053Y0032502D01*
X0098302Y0031751D01*
X0096050Y0031751D01*
X0097551Y0031751D02*
X0099053Y0030250D01*
X0100654Y0030250D02*
X0103656Y0030250D01*
X0102155Y0030250D02*
X0102155Y0034754D01*
X0100654Y0033253D01*
X0105258Y0032502D02*
X0108260Y0032502D01*
X0109862Y0033253D02*
X0111363Y0034754D01*
X0111363Y0030250D01*
X0109862Y0030250D02*
X0112864Y0030250D01*
X0108499Y0052750D02*
X0105497Y0052750D01*
X0104746Y0053501D01*
X0104746Y0055002D01*
X0105497Y0055753D01*
X0106247Y0057354D02*
X0104746Y0058855D01*
X0109250Y0058855D01*
X0109250Y0057354D02*
X0109250Y0060356D01*
X0108499Y0055753D02*
X0109250Y0055002D01*
X0109250Y0053501D01*
X0108499Y0052750D01*
X0088682Y0067751D02*
X0088682Y0069253D01*
X0087181Y0070754D01*
X0085579Y0070003D02*
X0084829Y0070754D01*
X0082577Y0070754D01*
X0082577Y0066250D01*
X0084829Y0066250D01*
X0085579Y0067001D01*
X0085579Y0070003D01*
X0088682Y0067751D02*
X0087181Y0066250D01*
X0080975Y0066250D02*
X0080975Y0070754D01*
X0077973Y0070754D02*
X0077973Y0066250D01*
X0076371Y0067001D02*
X0076371Y0068502D01*
X0074870Y0068502D01*
X0073369Y0070003D02*
X0073369Y0067001D01*
X0074120Y0066250D01*
X0075621Y0066250D01*
X0076371Y0067001D01*
X0076371Y0070003D02*
X0075621Y0070754D01*
X0074120Y0070754D01*
X0073369Y0070003D01*
X0071801Y0070754D02*
X0070300Y0069253D01*
X0070300Y0067751D01*
X0071801Y0066250D01*
X0068698Y0067001D02*
X0068698Y0067751D01*
X0067948Y0068502D01*
X0067197Y0068502D01*
X0067948Y0068502D02*
X0068698Y0069253D01*
X0068698Y0070003D01*
X0067948Y0070754D01*
X0066446Y0070754D01*
X0065696Y0070003D01*
X0064094Y0070754D02*
X0064094Y0066250D01*
X0061092Y0070754D01*
X0061092Y0066250D01*
X0059524Y0066250D02*
X0058022Y0066250D01*
X0058773Y0066250D02*
X0058773Y0070754D01*
X0058022Y0070754D02*
X0059524Y0070754D01*
X0065696Y0067001D02*
X0066446Y0066250D01*
X0067948Y0066250D01*
X0068698Y0067001D01*
X0077973Y0070754D02*
X0080975Y0066250D01*
X0073649Y0081250D02*
X0070646Y0081250D01*
X0073649Y0084253D01*
X0073649Y0085003D01*
X0072898Y0085754D01*
X0071397Y0085754D01*
X0070646Y0085003D01*
X0069045Y0085754D02*
X0069045Y0081250D01*
X0066042Y0085754D01*
X0066042Y0081250D01*
X0064474Y0081250D02*
X0062973Y0081250D01*
X0063723Y0081250D02*
X0063723Y0085754D01*
X0062973Y0085754D02*
X0064474Y0085754D01*
X0082250Y0101250D02*
X0083751Y0101250D01*
X0083001Y0101250D02*
X0083001Y0105754D01*
X0083751Y0105754D02*
X0082250Y0105754D01*
X0085319Y0105754D02*
X0088322Y0101250D01*
X0088322Y0105754D01*
X0089923Y0104253D02*
X0091424Y0105754D01*
X0091424Y0101250D01*
X0089923Y0101250D02*
X0092926Y0101250D01*
X0085319Y0101250D02*
X0085319Y0105754D01*
X0079098Y0117250D02*
X0076846Y0117250D01*
X0076846Y0121754D01*
X0079098Y0121754D01*
X0079849Y0121003D01*
X0079849Y0118001D01*
X0079098Y0117250D01*
X0075245Y0119502D02*
X0075245Y0121003D01*
X0074494Y0121754D01*
X0072242Y0121754D01*
X0072242Y0117250D01*
X0072242Y0118751D02*
X0074494Y0118751D01*
X0075245Y0119502D01*
X0070641Y0119502D02*
X0067638Y0119502D01*
X0066037Y0117250D02*
X0066037Y0121754D01*
X0063034Y0121754D02*
X0063034Y0117250D01*
X0064536Y0118751D01*
X0066037Y0117250D01*
X0061433Y0118001D02*
X0060682Y0117250D01*
X0059181Y0117250D01*
X0058430Y0118001D01*
X0059181Y0119502D02*
X0060682Y0119502D01*
X0061433Y0118751D01*
X0061433Y0118001D01*
X0059181Y0119502D02*
X0058430Y0120253D01*
X0058430Y0121003D01*
X0059181Y0121754D01*
X0060682Y0121754D01*
X0061433Y0121003D01*
X0056829Y0121003D02*
X0056829Y0119502D01*
X0056078Y0118751D01*
X0053826Y0118751D01*
X0053826Y0117250D02*
X0053826Y0121754D01*
X0056078Y0121754D01*
X0056829Y0121003D01*
X0055328Y0118751D02*
X0056829Y0117250D01*
X0082250Y0146250D02*
X0083751Y0146250D01*
X0083001Y0146250D02*
X0083001Y0150754D01*
X0083751Y0150754D02*
X0082250Y0150754D01*
X0085319Y0150754D02*
X0087571Y0150754D01*
X0088322Y0150003D01*
X0088322Y0148502D01*
X0087571Y0147751D01*
X0085319Y0147751D01*
X0085319Y0146250D02*
X0085319Y0150754D01*
X0086821Y0147751D02*
X0088322Y0146250D01*
X0089923Y0147001D02*
X0090674Y0146250D01*
X0092175Y0146250D01*
X0092926Y0147001D01*
X0092926Y0150003D01*
X0092175Y0150754D01*
X0090674Y0150754D01*
X0089923Y0150003D01*
X0089923Y0147001D01*
X0091424Y0147751D02*
X0092926Y0146250D01*
X0094527Y0146250D02*
X0097530Y0149253D01*
X0097530Y0150003D01*
X0096779Y0150754D01*
X0095278Y0150754D01*
X0094527Y0150003D01*
X0094527Y0146250D02*
X0097530Y0146250D01*
X0102250Y0147001D02*
X0103001Y0146250D01*
X0104502Y0146250D01*
X0105253Y0147001D01*
X0105253Y0148502D01*
X0103751Y0148502D01*
X0102250Y0150003D02*
X0102250Y0147001D01*
X0102250Y0150003D02*
X0103001Y0150754D01*
X0104502Y0150754D01*
X0105253Y0150003D01*
X0106854Y0150754D02*
X0109856Y0146250D01*
X0109856Y0150754D01*
X0111458Y0150754D02*
X0113710Y0150754D01*
X0114460Y0150003D01*
X0114460Y0147001D01*
X0113710Y0146250D01*
X0111458Y0146250D01*
X0111458Y0150754D01*
X0106854Y0150754D02*
X0106854Y0146250D01*
X0106759Y0134754D02*
X0105258Y0134754D01*
X0106008Y0134754D02*
X0106008Y0130250D01*
X0105258Y0130250D02*
X0106759Y0130250D01*
X0108327Y0130250D02*
X0110579Y0130250D01*
X0111330Y0131001D01*
X0111330Y0134003D01*
X0110579Y0134754D01*
X0108327Y0134754D01*
X0108327Y0130250D01*
X0112931Y0130250D02*
X0115934Y0130250D01*
X0114432Y0130250D02*
X0114432Y0134754D01*
X0112931Y0133253D01*
X0103656Y0134003D02*
X0103656Y0131001D01*
X0102906Y0130250D01*
X0101405Y0130250D01*
X0100654Y0131001D01*
X0100654Y0134003D01*
X0101405Y0134754D01*
X0102906Y0134754D01*
X0103656Y0134003D01*
X0099053Y0134754D02*
X0099053Y0131751D01*
X0097551Y0130250D01*
X0096050Y0131751D01*
X0096050Y0134754D01*
X0120334Y0144750D02*
X0123337Y0144750D01*
X0124938Y0144750D02*
X0127941Y0144750D01*
X0129542Y0144750D02*
X0131794Y0144750D01*
X0132545Y0145501D01*
X0132545Y0148503D01*
X0131794Y0149254D01*
X0129542Y0149254D01*
X0129542Y0144750D01*
X0126439Y0147002D02*
X0124938Y0147002D01*
X0124938Y0149254D02*
X0124938Y0144750D01*
X0120334Y0144750D02*
X0120334Y0149254D01*
X0124938Y0149254D02*
X0127941Y0149254D01*
X0134146Y0147753D02*
X0135647Y0149254D01*
X0135647Y0144750D01*
X0134146Y0144750D02*
X0137149Y0144750D01*
X0136294Y0139254D02*
X0134793Y0139254D01*
X0134042Y0138503D01*
X0134042Y0135501D01*
X0134793Y0134750D01*
X0136294Y0134750D01*
X0137045Y0135501D01*
X0138646Y0134750D02*
X0141649Y0134750D01*
X0140147Y0134750D02*
X0140147Y0139254D01*
X0138646Y0137753D01*
X0137045Y0138503D02*
X0136294Y0139254D01*
X0132474Y0139254D02*
X0130973Y0139254D01*
X0131723Y0139254D02*
X0131723Y0134750D01*
X0130973Y0134750D02*
X0132474Y0134750D01*
X0154965Y0111754D02*
X0154965Y0108751D01*
X0156466Y0107250D01*
X0157968Y0108751D01*
X0157968Y0111754D01*
X0159569Y0111003D02*
X0159569Y0108001D01*
X0160320Y0107250D01*
X0161821Y0107250D01*
X0162571Y0108001D01*
X0162571Y0111003D01*
X0161821Y0111754D01*
X0160320Y0111754D01*
X0159569Y0111003D01*
X0164173Y0111754D02*
X0165674Y0111754D01*
X0164923Y0111754D02*
X0164923Y0107250D01*
X0164173Y0107250D02*
X0165674Y0107250D01*
X0167242Y0107250D02*
X0169494Y0107250D01*
X0170245Y0108001D01*
X0170245Y0111003D01*
X0169494Y0111754D01*
X0167242Y0111754D01*
X0167242Y0107250D01*
X0171846Y0109502D02*
X0174849Y0109502D01*
X0174098Y0111754D02*
X0171846Y0109502D01*
X0174098Y0107250D02*
X0174098Y0111754D01*
X0174098Y0091754D02*
X0174849Y0091003D01*
X0174849Y0090253D01*
X0174098Y0089502D01*
X0174849Y0088751D01*
X0174849Y0088001D01*
X0174098Y0087250D01*
X0172597Y0087250D01*
X0171846Y0088001D01*
X0170245Y0088001D02*
X0169494Y0087250D01*
X0167242Y0087250D01*
X0167242Y0091754D01*
X0169494Y0091754D01*
X0170245Y0091003D01*
X0170245Y0088001D01*
X0171846Y0091003D02*
X0172597Y0091754D01*
X0174098Y0091754D01*
X0174098Y0089502D02*
X0173347Y0089502D01*
X0165674Y0091754D02*
X0164173Y0091754D01*
X0164923Y0091754D02*
X0164923Y0087250D01*
X0164173Y0087250D02*
X0165674Y0087250D01*
X0162571Y0088001D02*
X0162571Y0091003D01*
X0161821Y0091754D01*
X0160320Y0091754D01*
X0159569Y0091003D01*
X0159569Y0088001D01*
X0160320Y0087250D01*
X0161821Y0087250D01*
X0162571Y0088001D01*
X0157968Y0088751D02*
X0157968Y0091754D01*
X0154965Y0091754D02*
X0154965Y0088751D01*
X0156466Y0087250D01*
X0157968Y0088751D01*
X0157968Y0071754D02*
X0157968Y0068751D01*
X0156466Y0067250D01*
X0154965Y0068751D01*
X0154965Y0071754D01*
X0159569Y0071003D02*
X0159569Y0068001D01*
X0160320Y0067250D01*
X0161821Y0067250D01*
X0162571Y0068001D01*
X0162571Y0071003D01*
X0161821Y0071754D01*
X0160320Y0071754D01*
X0159569Y0071003D01*
X0164173Y0071754D02*
X0165674Y0071754D01*
X0164923Y0071754D02*
X0164923Y0067250D01*
X0164173Y0067250D02*
X0165674Y0067250D01*
X0167242Y0067250D02*
X0169494Y0067250D01*
X0170245Y0068001D01*
X0170245Y0071003D01*
X0169494Y0071754D01*
X0167242Y0071754D01*
X0167242Y0067250D01*
X0171846Y0067250D02*
X0174849Y0070253D01*
X0174849Y0071003D01*
X0174098Y0071754D01*
X0172597Y0071754D01*
X0171846Y0071003D01*
X0171846Y0067250D02*
X0174849Y0067250D01*
X0171363Y0044754D02*
X0171363Y0040250D01*
X0169862Y0040250D02*
X0172864Y0040250D01*
X0169862Y0043253D02*
X0171363Y0044754D01*
X0168260Y0042502D02*
X0165258Y0042502D01*
X0163656Y0043253D02*
X0163656Y0044003D01*
X0162906Y0044754D01*
X0161405Y0044754D01*
X0160654Y0044003D01*
X0159053Y0044003D02*
X0159053Y0042502D01*
X0158302Y0041751D01*
X0156050Y0041751D01*
X0156050Y0040250D02*
X0156050Y0044754D01*
X0158302Y0044754D01*
X0159053Y0044003D01*
X0157551Y0041751D02*
X0159053Y0040250D01*
X0160654Y0040250D02*
X0163656Y0043253D01*
X0163656Y0040250D02*
X0160654Y0040250D01*
X0154250Y0030356D02*
X0154250Y0027354D01*
X0151247Y0030356D01*
X0150497Y0030356D01*
X0149746Y0029606D01*
X0149746Y0028105D01*
X0150497Y0027354D01*
X0150497Y0025753D02*
X0149746Y0025002D01*
X0149746Y0023501D01*
X0150497Y0022750D01*
X0153499Y0022750D01*
X0154250Y0023501D01*
X0154250Y0025002D01*
X0153499Y0025753D01*
X0117864Y0080250D02*
X0114862Y0080250D01*
X0117864Y0083253D01*
X0117864Y0084003D01*
X0117114Y0084754D01*
X0115612Y0084754D01*
X0114862Y0084003D01*
X0113260Y0082502D02*
X0110258Y0082502D01*
X0108656Y0080250D02*
X0105654Y0080250D01*
X0107155Y0080250D02*
X0107155Y0084754D01*
X0105654Y0083253D01*
X0104053Y0084003D02*
X0104053Y0082502D01*
X0103302Y0081751D01*
X0101050Y0081751D01*
X0101050Y0080250D02*
X0101050Y0084754D01*
X0103302Y0084754D01*
X0104053Y0084003D01*
X0102551Y0081751D02*
X0104053Y0080250D01*
X0104053Y0100250D02*
X0102551Y0101751D01*
X0103302Y0101751D02*
X0101050Y0101751D01*
X0101050Y0100250D02*
X0101050Y0104754D01*
X0103302Y0104754D01*
X0104053Y0104003D01*
X0104053Y0102502D01*
X0103302Y0101751D01*
X0105654Y0100250D02*
X0108656Y0103253D01*
X0108656Y0104003D01*
X0107906Y0104754D01*
X0106405Y0104754D01*
X0105654Y0104003D01*
X0105654Y0100250D02*
X0108656Y0100250D01*
X0110258Y0102502D02*
X0113260Y0102502D01*
X0114862Y0104003D02*
X0115612Y0104754D01*
X0117114Y0104754D01*
X0117864Y0104003D01*
X0117864Y0103253D01*
X0114862Y0100250D01*
X0117864Y0100250D01*
X0166050Y0135250D02*
X0166050Y0139754D01*
X0168302Y0139754D01*
X0169053Y0139003D01*
X0169053Y0137502D01*
X0168302Y0136751D01*
X0166050Y0136751D01*
X0167551Y0136751D02*
X0169053Y0135250D01*
X0170654Y0135250D02*
X0173656Y0138253D01*
X0173656Y0139003D01*
X0172906Y0139754D01*
X0171405Y0139754D01*
X0170654Y0139003D01*
X0170654Y0135250D02*
X0173656Y0135250D01*
X0175258Y0137502D02*
X0178260Y0137502D01*
X0179862Y0139003D02*
X0180612Y0139754D01*
X0182114Y0139754D01*
X0182864Y0139003D01*
X0182864Y0138253D01*
X0182114Y0137502D01*
X0182864Y0136751D01*
X0182864Y0136001D01*
X0182114Y0135250D01*
X0180612Y0135250D01*
X0179862Y0136001D01*
X0181363Y0137502D02*
X0182114Y0137502D01*
X0132134Y0161250D02*
X0132134Y0165754D01*
X0129131Y0165754D02*
X0132134Y0161250D01*
X0129131Y0161250D02*
X0129131Y0165754D01*
X0127563Y0165754D02*
X0126062Y0165754D01*
X0126812Y0165754D02*
X0126812Y0161250D01*
X0126062Y0161250D02*
X0127563Y0161250D01*
X0124460Y0162001D02*
X0123710Y0161250D01*
X0122208Y0161250D01*
X0121458Y0162001D01*
X0121458Y0165003D01*
X0122208Y0165754D01*
X0123710Y0165754D01*
X0124460Y0165003D01*
X0119856Y0165003D02*
X0119106Y0165754D01*
X0117605Y0165754D01*
X0116854Y0165003D01*
X0116854Y0162001D01*
X0117605Y0161250D01*
X0119106Y0161250D01*
X0119856Y0162001D01*
X0115253Y0162751D02*
X0113751Y0161250D01*
X0112250Y0162751D01*
X0112250Y0165754D01*
X0115253Y0165754D02*
X0115253Y0162751D01*
X0099856Y0161250D02*
X0099856Y0165754D01*
X0096854Y0165754D02*
X0096854Y0161250D01*
X0098355Y0162751D01*
X0099856Y0161250D01*
X0095253Y0162001D02*
X0094502Y0161250D01*
X0093001Y0161250D01*
X0092250Y0162001D01*
X0093001Y0163502D02*
X0094502Y0163502D01*
X0095253Y0162751D01*
X0095253Y0162001D01*
X0093001Y0163502D02*
X0092250Y0164253D01*
X0092250Y0165003D01*
X0093001Y0165754D01*
X0094502Y0165754D01*
X0095253Y0165003D01*
X0087530Y0161250D02*
X0084527Y0161250D01*
X0086028Y0161250D02*
X0086028Y0165754D01*
X0084527Y0164253D01*
X0082926Y0165003D02*
X0082926Y0162001D01*
X0082175Y0161250D01*
X0080674Y0161250D01*
X0079923Y0162001D01*
X0079923Y0165003D01*
X0080674Y0165754D01*
X0082175Y0165754D01*
X0082926Y0165003D01*
X0081424Y0162751D02*
X0082926Y0161250D01*
X0078322Y0161250D02*
X0076821Y0162751D01*
X0077571Y0162751D02*
X0075319Y0162751D01*
X0075319Y0161250D02*
X0075319Y0165754D01*
X0077571Y0165754D01*
X0078322Y0165003D01*
X0078322Y0163502D01*
X0077571Y0162751D01*
X0073751Y0161250D02*
X0072250Y0161250D01*
X0073001Y0161250D02*
X0073001Y0165754D01*
X0073751Y0165754D02*
X0072250Y0165754D01*
X0055355Y0055254D02*
X0055355Y0050750D01*
X0053854Y0050750D02*
X0056856Y0050750D01*
X0053854Y0053753D02*
X0055355Y0055254D01*
X0052253Y0054503D02*
X0051502Y0055254D01*
X0050001Y0055254D01*
X0049250Y0054503D01*
X0049250Y0053753D01*
X0050001Y0053002D01*
X0051502Y0053002D01*
X0052253Y0052251D01*
X0052253Y0051501D01*
X0051502Y0050750D01*
X0050001Y0050750D01*
X0049250Y0051501D01*
D14*
X0095000Y0026000D02*
X0097000Y0026000D01*
X0105000Y0076000D02*
X0107000Y0076000D01*
X0107000Y0096000D02*
X0105000Y0096000D01*
X0105000Y0126000D02*
X0107000Y0126000D01*
X0082000Y0126000D02*
X0080000Y0126000D01*
X0165000Y0131000D02*
X0167000Y0131000D01*
X0167000Y0116000D02*
X0165000Y0116000D01*
X0165000Y0096000D02*
X0167000Y0096000D01*
X0167000Y0076000D02*
X0165000Y0076000D01*
X0151000Y0047000D02*
X0151000Y0045000D01*
D15*
X0066000Y0047000D02*
X0066000Y0048000D01*
X0066000Y0047000D02*
X0056000Y0047000D01*
X0056000Y0048000D01*
X0056000Y0025000D02*
X0056000Y0024000D01*
X0056000Y0025000D02*
X0065500Y0025000D01*
X0065500Y0024000D01*
D16*
X0146000Y0143000D02*
X0146192Y0143002D01*
X0146384Y0143009D01*
X0146576Y0143021D01*
X0146768Y0143037D01*
X0146959Y0143058D01*
X0147149Y0143083D01*
X0147339Y0143113D01*
X0147528Y0143147D01*
X0147716Y0143186D01*
X0147903Y0143230D01*
X0148089Y0143278D01*
X0148274Y0143330D01*
X0148458Y0143387D01*
X0148640Y0143448D01*
X0148820Y0143514D01*
X0148999Y0143584D01*
X0149177Y0143658D01*
X0149352Y0143736D01*
X0149526Y0143819D01*
X0149697Y0143906D01*
X0149866Y0143996D01*
X0150033Y0144091D01*
X0150198Y0144190D01*
X0150361Y0144293D01*
X0150520Y0144400D01*
X0150678Y0144510D01*
X0150832Y0144624D01*
X0150984Y0144742D01*
X0151133Y0144864D01*
X0151279Y0144989D01*
X0151421Y0145117D01*
X0151561Y0145249D01*
X0151698Y0145384D01*
X0151831Y0145523D01*
X0151961Y0145664D01*
X0152087Y0145809D01*
X0152210Y0145957D01*
X0152329Y0146107D01*
X0152445Y0146261D01*
X0152557Y0146417D01*
X0152665Y0146576D01*
X0152770Y0146737D01*
X0152870Y0146901D01*
X0152966Y0147067D01*
X0153059Y0147235D01*
X0152946Y0154969D02*
X0152847Y0155138D01*
X0152743Y0155304D01*
X0152636Y0155468D01*
X0152525Y0155629D01*
X0152410Y0155787D01*
X0152291Y0155942D01*
X0152168Y0156095D01*
X0152042Y0156244D01*
X0151912Y0156390D01*
X0151778Y0156533D01*
X0151641Y0156673D01*
X0151501Y0156809D01*
X0151357Y0156942D01*
X0151210Y0157071D01*
X0151060Y0157197D01*
X0150907Y0157318D01*
X0150751Y0157437D01*
X0150592Y0157551D01*
X0150431Y0157661D01*
X0150266Y0157767D01*
X0150100Y0157870D01*
X0149930Y0157968D01*
X0149759Y0158062D01*
X0149585Y0158152D01*
X0149409Y0158237D01*
X0149231Y0158319D01*
X0149051Y0158395D01*
X0148869Y0158468D01*
X0148686Y0158536D01*
X0148501Y0158599D01*
X0148314Y0158658D01*
X0148126Y0158712D01*
X0147937Y0158762D01*
X0147747Y0158807D01*
X0147555Y0158847D01*
X0147363Y0158883D01*
X0147170Y0158914D01*
X0146976Y0158940D01*
X0146781Y0158962D01*
X0146586Y0158978D01*
X0146391Y0158990D01*
X0146195Y0158998D01*
X0146000Y0159000D01*
X0145807Y0158998D01*
X0145614Y0158991D01*
X0145422Y0158979D01*
X0145229Y0158963D01*
X0145037Y0158942D01*
X0144846Y0158916D01*
X0144656Y0158886D01*
X0144466Y0158851D01*
X0144277Y0158812D01*
X0144089Y0158768D01*
X0143902Y0158720D01*
X0143716Y0158667D01*
X0143532Y0158610D01*
X0143349Y0158548D01*
X0143168Y0158482D01*
X0142988Y0158411D01*
X0142810Y0158337D01*
X0142634Y0158258D01*
X0142460Y0158174D01*
X0142288Y0158087D01*
X0142118Y0157995D01*
X0141951Y0157899D01*
X0141785Y0157800D01*
X0141622Y0157696D01*
X0141462Y0157589D01*
X0141305Y0157477D01*
X0141150Y0157362D01*
X0140998Y0157243D01*
X0140849Y0157121D01*
X0140702Y0156995D01*
X0140559Y0156865D01*
X0140419Y0156732D01*
X0140283Y0156596D01*
X0140149Y0156456D01*
X0140020Y0156314D01*
X0139893Y0156168D01*
X0139854Y0145878D02*
X0139981Y0145730D01*
X0140111Y0145585D01*
X0140244Y0145444D01*
X0140381Y0145305D01*
X0140521Y0145170D01*
X0140665Y0145039D01*
X0140812Y0144911D01*
X0140961Y0144786D01*
X0141114Y0144665D01*
X0141269Y0144548D01*
X0141428Y0144435D01*
X0141589Y0144326D01*
X0141753Y0144221D01*
X0141919Y0144119D01*
X0142088Y0144022D01*
X0142258Y0143929D01*
X0142432Y0143840D01*
X0142607Y0143755D01*
X0142784Y0143675D01*
X0142963Y0143599D01*
X0143144Y0143527D01*
X0143327Y0143460D01*
X0143511Y0143397D01*
X0143697Y0143339D01*
X0143884Y0143285D01*
X0144072Y0143236D01*
X0144262Y0143191D01*
X0144452Y0143151D01*
X0144644Y0143116D01*
X0144836Y0143085D01*
X0145029Y0143059D01*
X0145223Y0143038D01*
X0145417Y0143021D01*
X0145611Y0143009D01*
X0145805Y0143002D01*
X0146000Y0143000D01*
M02*
