%
M48
M72
T01C0.03150
T02C0.03200
T03C0.04000
T04C0.12598
%
T01
X76800Y73926
X76800Y81800
X76800Y89674
X271800Y73926
X271800Y81800
X271800Y89674
X107548Y151800
X99674Y151800
X91800Y151800
X83926Y151800
X76052Y151800
X76800Y243926
X76800Y251800
X76800Y259674
X76052Y321800
X83926Y321800
X91800Y321800
X99674Y321800
X107548Y321800
X271052Y321800
X278926Y321800
X286800Y321800
X294674Y321800
X302548Y321800
X271800Y259674
X271800Y251800
X271800Y243926
X271052Y151800
X278926Y151800
X286800Y151800
X294674Y151800
X302548Y151800
T02
X91800Y16800
X101800Y16800
X116800Y16800
X136800Y16800
X151800Y31800
X151800Y41800
X151800Y56800
X151800Y66800
X161800Y66800
X171800Y66800
X171800Y86800
X161800Y86800
X151800Y86800
X151800Y76800
X151800Y96800
X151800Y106800
X161800Y106800
X171800Y106800
X171800Y121800
X161800Y121800
X151800Y116800
X151800Y141800
X141800Y141800
X76800Y286800
X86800Y286800
X101800Y286800
X111800Y286800
X121800Y286800
X121800Y276800
X121800Y266800
X121800Y256800
X111800Y256800
X101800Y256800
X101800Y236800
X111800Y236800
X121800Y236800
X121800Y246800
X121800Y226800
X116800Y206800
X116800Y186800
X101800Y186800
X91800Y186800
X136800Y186800
X151800Y201800
X151800Y211800
X151800Y226800
X151800Y236800
X151800Y246800
X161800Y236800
X171800Y236800
X171800Y256800
X161800Y256800
X151800Y256800
X151800Y266800
X151800Y276800
X151800Y286800
X161800Y291800
X171800Y291800
X171800Y276800
X161800Y276800
X151800Y311800
X141800Y311800
X136800Y36800
X116800Y36800
X121800Y56800
X121800Y66800
X111800Y66800
X101800Y66800
X101800Y86800
X111800Y86800
X121800Y86800
X121800Y76800
X121800Y96800
X121800Y106800
X121800Y116800
X111800Y116800
X101800Y116800
X86800Y116800
X76800Y116800
X136800Y206800
X271800Y116800
X281800Y116800
X296800Y116800
X306800Y116800
X316800Y116800
X316800Y106800
X316800Y96800
X316800Y86800
X316800Y76800
X306800Y86800
X296800Y86800
X296800Y66800
X306800Y66800
X316800Y66800
X316800Y56800
X311800Y36800
X331800Y36800
X346800Y31800
X346800Y41800
X346800Y56800
X346800Y66800
X346800Y76800
X346800Y86800
X346800Y96800
X346800Y106800
X346800Y116800
X356800Y121800
X366800Y121800
X366800Y106800
X356800Y106800
X356800Y86800
X366800Y86800
X366800Y66800
X356800Y66800
X346800Y311800
X336800Y311800
X356800Y291800
X366800Y291800
X366800Y276800
X356800Y276800
X346800Y276800
X346800Y286800
X346800Y266800
X346800Y256800
X346800Y246800
X346800Y236800
X346800Y226800
X356800Y236800
X366800Y236800
X366800Y256800
X356800Y256800
X316800Y256800
X306800Y256800
X296800Y256800
X296800Y236800
X306800Y236800
X316800Y236800
X316800Y246800
X316800Y226800
X311800Y206800
X311800Y186800
X296800Y186800
X286800Y186800
X331800Y186800
X346800Y201800
X346800Y211800
X331800Y206800
X346800Y141800
X336800Y141800
X331800Y16800
X311800Y16800
X296800Y16800
X286800Y16800
X316800Y266800
X316800Y276800
X316800Y286800
X306800Y286800
X296800Y286800
X281800Y286800
X271800Y286800
T03
X49000Y17900
X49000Y35700
X74600Y35700
X74600Y17900
X244000Y17900
X244000Y35700
X269600Y35700
X269600Y17900
X244000Y187900
X244000Y205700
X269600Y205700
X269600Y187900
X74600Y187900
X74600Y205700
X49000Y205700
X49000Y187900
T04
X26800Y21800
X26800Y141800
X221800Y21800
X166800Y21800
X166800Y141800
X166800Y191800
X221800Y191800
X221800Y141800
X361800Y141800
X361800Y191800
X26800Y191800
X26800Y311800
X166800Y311800
X221800Y311800
X361800Y311800
X361800Y21800
M30
